    <svg xmlns="http://www.w3.org/2000/svg" viewBox="0 0 2666.7 2666.7">
      <path
        fill="#f8f8f8"
        d="M16300 0H0v16300h16300V0"
        transform="matrix(1.3333 0 0 -1.3333 0 2666.7) scale(.1) scale(1.227)"
      ></path>
      <path
        fill="#d1c8ce"
        d="M4853.3 6022.9c-525.1 0-950.77 425.7-950.77 950.8s425.67 950.8 950.77 950.8c525.09 0 950.76-425.7 950.76-950.8s-425.67-950.8-950.76-950.8zM7030 6715.1v500.4l-630.42 175.2c-35.07 130.4-86.18 254.2-151.11 369.2l320.89 567.7-353.83 353.9-564.5-319.1c-116.33 67-241.91 119.6-374.28 155.9l-173.29 623.8h-500.4l-173.29-623.8c-132.38-36.3-257.96-88.9-374.29-155.9l-564.5 319.1-353.83-353.9 320.9-567.7c-64.94-115-116.04-238.8-151.14-369.2l-630.4-175.2v-500.4L3312 6538.6c35.75-126.9 86.59-247.5 150.73-359.5l-325.58-576 353.83-353.9 579.32 327.5c110.68-62.2 229.49-111.6 354.45-146.2l178.31-641.9h500.4l178.3 641.9c124.96 34.6 243.76 84 354.45 146.2l579.32-327.5 353.83 353.9-325.58 576c64.16 112.1 115.17 232.6 150.93 359.6L7030 6715.1"
        transform="matrix(1.3333 0 0 -1.3333 0 2666.7) scale(.1)"
      ></path>
      <path
        fill="#d1c8ce"
        d="M2085.5 7417c-223.28 52.5-361.79 275.9-309.37 499.2s275.92 361.8 499.19 309.4c223.28-52.4 361.8-275.9 309.37-499.2-52.41-223.3-275.91-361.8-499.19-309.4zm994.7 77.1l49.95 212.8-250.58 137.4a693.93 693.93 0 01-27.41 172l193.14 209.4-115.14 185.8-271.89-79.3c-42.78 40.1-90.92 75-143.59 103.6l-11.41 282.6-212.78 49.9-135.96-247.9c-59.91-2.2-118.57-12.1-174.71-28.9l-208.19 192-185.78-115.2 79.77-273.4c-39.09-42.4-73.18-90-101.12-141.9l-285.54-11.5-49.96-212.8 252.6-138.5c2.54-57.6 12.12-113.9 28.21-167.9l-195.95-212.5L1429 7224l279.02 81.4c40.86-37.5 86.44-70.3 136.13-97.5l11.73-290.8 212.79-49.9 139.89 255.1c56.6 2.3 112.05 11.4 165.32 26.8l213.65-197 185.78 115.1-80.94 277.4c38.47 41.3 72.19 87.4 100.07 137.9l287.76 11.6"
        transform="matrix(1.3333 0 0 -1.3333 0 2666.7) scale(.1)"
      ></path>
      <path
        fill="#9e8fae"
        d="M6754.4 5216.1h-25.24v9827.7h25.24V5216.1"
        transform="matrix(1.3333 0 0 -1.3333 0 2666.7) scale(.1)"
      ></path>
      <path
        fill="#2191f2"
        d="M3854.5 14478c-54.72 0-99.09 44.3-99.09 99.1 0 54.7 44.37 99.1 99.09 99.1s99.09-44.4 99.09-99.1c0-54.8-44.37-99.1-99.09-99.1"
        transform="matrix(1.3333 0 0 -1.3333 0 2666.7) scale(.1)"
      ></path>
      <path
        fill="#9e8fae"
        d="M4896.5 14531h-826.15c-22.04 0-39.9 17.8-39.9 39.9v21.3c0 22 17.86 39.9 39.9 39.9h826.15c22.04 0 39.9-17.9 39.9-39.9v-21.3c0-22.1-17.86-39.9-39.9-39.9"
        transform="matrix(1.3333 0 0 -1.3333 0 2666.7) scale(.1)"
      ></path>
      <path
        fill="#2191f2"
        d="M3854.5 13366c-54.72 0-99.09 44.3-99.09 99.1 0 54.7 44.37 99.1 99.09 99.1s99.09-44.4 99.09-99.1c0-54.8-44.37-99.1-99.09-99.1"
        transform="matrix(1.3333 0 0 -1.3333 0 2666.7) scale(.1)"
      ></path>
      <path
        fill="#9e8fae"
        d="M4896.5 13418h-826.15c-22.04 0-39.9 17.9-39.9 39.9v21.4c0 22 17.86 39.9 39.9 39.9h826.15c22.04 0 39.9-17.9 39.9-39.9v-21.4c0-22-17.86-39.9-39.9-39.9"
        transform="matrix(1.3333 0 0 -1.3333 0 2666.7) scale(.1)"
      ></path>
      <path
        fill="#2191f2"
        d="M3854.5 11918c-54.72 0-99.09 44.3-99.09 99.1 0 54.7 44.37 99.1 99.09 99.1s99.09-44.4 99.09-99.1c0-54.8-44.37-99.1-99.09-99.1"
        transform="matrix(1.3333 0 0 -1.3333 0 2666.7) scale(.1)"
      ></path>
      <path
        fill="#9e8fae"
        d="M4896.5 11971h-826.15c-22.04 0-39.9 17.9-39.9 40v21.3c0 22 17.86 39.9 39.9 39.9h826.15c22.04 0 39.9-17.9 39.9-39.9v-21.3c0-22.1-17.86-40-39.9-40"
        transform="matrix(1.3333 0 0 -1.3333 0 2666.7) scale(.1)"
      ></path>
      <path
        fill="#2191f2"
        d="M3854.5 11544c-54.72 0-99.09 44.3-99.09 99.1 0 54.7 44.37 99 99.09 99s99.09-44.3 99.09-99c0-54.8-44.37-99.1-99.09-99.1"
        transform="matrix(1.3333 0 0 -1.3333 0 2666.7) scale(.1)"
      ></path>
      <path
        fill="#9e8fae"
        d="M4896.5 11596h-826.15c-22.04 0-39.9 17.9-39.9 39.9v21.3c0 22.1 17.86 40 39.9 40h826.15c22.04 0 39.9-17.9 39.9-40v-21.3c0-22-17.86-39.9-39.9-39.9"
        transform="matrix(1.3333 0 0 -1.3333 0 2666.7) scale(.1)"
      ></path>
      <path
        fill="#2191f2"
        d="M4129.5 14187c-54.73 0-99.09 44.4-99.09 99.1s44.36 99.1 99.09 99.1c54.72 0 99.09-44.4 99.09-99.1s-44.37-99.1-99.09-99.1"
        transform="matrix(1.3333 0 0 -1.3333 0 2666.7) scale(.1)"
      ></path>
      <path
        fill="#9e8fae"
        d="M5171.5 14240h-826.15c-22.03 0-39.9 17.8-39.9 39.9v21.3c0 22 17.87 39.9 39.9 39.9h826.15c22.04 0 39.9-17.9 39.9-39.9v-21.3c0-22.1-17.86-39.9-39.9-39.9"
        transform="matrix(1.3333 0 0 -1.3333 0 2666.7) scale(.1)"
      ></path>
      <path
        fill="#2191f2"
        d="M4129.5 13896c-54.73 0-99.09 44.4-99.09 99.1s44.36 99.1 99.09 99.1c54.72 0 99.09-44.4 99.09-99.1s-44.37-99.1-99.09-99.1"
        transform="matrix(1.3333 0 0 -1.3333 0 2666.7) scale(.1)"
      ></path>
      <path
        fill="#9e8fae"
        d="M5515.3 13948H4345.4c-22.03 0-39.9 17.8-39.9 39.9v21.3c0 22 17.87 39.9 39.9 39.9h1169.9c22.04 0 39.9-17.9 39.9-39.9v-21.3c0-22.1-17.86-39.9-39.9-39.9"
        transform="matrix(1.3333 0 0 -1.3333 0 2666.7) scale(.1)"
      ></path>
      <path
        fill="#2191f2"
        d="M4129.5 13087c-54.73 0-99.09 44.4-99.09 99.1s44.36 99.1 99.09 99.1c54.72 0 99.09-44.4 99.09-99.1s-44.37-99.1-99.09-99.1"
        transform="matrix(1.3333 0 0 -1.3333 0 2666.7) scale(.1)"
      ></path>
      <path
        fill="#9e8fae"
        d="M5786.2 13140H4345.3c-22.03 0-39.9 17.8-39.9 39.9v21.3c0 22 17.87 39.9 39.9 39.9h1440.9c22.04 0 39.9-17.9 39.9-39.9v-21.3c0-22.1-17.86-39.9-39.9-39.9"
        transform="matrix(1.3333 0 0 -1.3333 0 2666.7) scale(.1)"
      ></path>
      <path
        fill="#2191f2"
        d="M4129.5 12796c-54.73 0-99.09 44.4-99.09 99.1s44.36 99.1 99.09 99.1c54.72 0 99.09-44.4 99.09-99.1s-44.37-99.1-99.09-99.1"
        transform="matrix(1.3333 0 0 -1.3333 0 2666.7) scale(.1)"
      ></path>
      <path
        fill="#9e8fae"
        d="M5292.8 12848h-947.48c-22.03 0-39.9 17.9-39.9 39.9v21.3c0 22 17.87 39.9 39.9 39.9h947.48c22.04 0 39.9-17.9 39.9-39.9v-21.3c0-22-17.86-39.9-39.9-39.9"
        transform="matrix(1.3333 0 0 -1.3333 0 2666.7) scale(.1)"
      ></path>
      <path
        fill="#2191f2"
        d="M4383.7 12530c-43.2 0-78.21 35-78.21 78.2s35.01 78.2 78.21 78.2c43.19 0 78.2-35 78.2-78.2s-35.01-78.2-78.2-78.2"
        transform="matrix(1.3333 0 0 -1.3333 0 2666.7) scale(.1)"
      ></path>
      <path
        fill="#9e8fae"
        d="M6174.5 12572H4562.4c-22.03 0-39.9 17.8-39.9 39.9 0 22 17.87 39.9 39.9 39.9h1612.1c22.04 0 39.9-17.9 39.9-39.9 0-22.1-17.86-39.9-39.9-39.9"
        transform="matrix(1.3333 0 0 -1.3333 0 2666.7) scale(.1)"
      ></path>
      <path
        fill="#2191f2"
        d="M4383.7 12300c-43.2 0-78.21 35-78.21 78.2s35.01 78.2 78.21 78.2c43.19 0 78.2-35 78.2-78.2s-35.01-78.2-78.2-78.2"
        transform="matrix(1.3333 0 0 -1.3333 0 2666.7) scale(.1)"
      ></path>
      <path
        fill="#9e8fae"
        d="M5515.3 12342h-952.86c-22.03 0-39.9 17.8-39.9 39.9 0 22 17.87 39.9 39.9 39.9h952.86c22.04 0 39.9-17.9 39.9-39.9 0-22.1-17.86-39.9-39.9-39.9"
        transform="matrix(1.3333 0 0 -1.3333 0 2666.7) scale(.1)"
      ></path>
      <path
        fill="#2191f2"
        d="M3854.5 11125c-54.72 0-99.09 44.4-99.09 99.1 0 54.8 44.37 99.1 99.09 99.1s99.09-44.3 99.09-99.1c0-54.7-44.37-99.1-99.09-99.1"
        transform="matrix(1.3333 0 0 -1.3333 0 2666.7) scale(.1)"
      ></path>
      <path
        fill="#9e8fae"
        d="M4896.5 11178h-826.15c-22.04 0-39.9 17.9-39.9 39.9v21.3c0 22.1 17.86 39.9 39.9 39.9h826.15c22.04 0 39.9-17.8 39.9-39.9v-21.3c0-22-17.86-39.9-39.9-39.9"
        transform="matrix(1.3333 0 0 -1.3333 0 2666.7) scale(.1)"
      ></path>
      <path
        fill="#2191f2"
        d="M3854.5 10013c-54.72 0-99.09 44.4-99.09 99.1s44.37 99.1 99.09 99.1 99.09-44.4 99.09-99.1-44.37-99.1-99.09-99.1"
        transform="matrix(1.3333 0 0 -1.3333 0 2666.7) scale(.1)"
      ></path>
      <path
        fill="#9e8fae"
        d="M4896.5 10066h-826.15c-22.04 0-39.9 17.9-39.9 39.9v21.3c0 22.1 17.86 39.9 39.9 39.9h826.15c22.04 0 39.9-17.8 39.9-39.9v-21.3c0-22-17.86-39.9-39.9-39.9"
        transform="matrix(1.3333 0 0 -1.3333 0 2666.7) scale(.1)"
      ></path>
      <path
        fill="#2191f2"
        d="M3854.5 8565.2c-54.72 0-99.09 44.4-99.09 99.1s44.37 99.1 99.09 99.1 99.09-44.4 99.09-99.1-44.37-99.1-99.09-99.1"
        transform="matrix(1.3333 0 0 -1.3333 0 2666.7) scale(.1)"
      ></path>
      <path
        fill="#9e8fae"
        d="M4896.5 8617.8h-826.15c-22.04 0-39.9 17.9-39.9 39.9v21.3c0 22.1 17.86 39.9 39.9 39.9h826.15c22.04 0 39.9-17.8 39.9-39.9v-21.3c0-22-17.86-39.9-39.9-39.9"
        transform="matrix(1.3333 0 0 -1.3333 0 2666.7) scale(.1)"
      ></path>
      <path
        fill="#2191f2"
        d="M3854.5 8191.1c-54.72 0-99.09 44.4-99.09 99.1s44.37 99.1 99.09 99.1 99.09-44.4 99.09-99.1-44.37-99.1-99.09-99.1"
        transform="matrix(1.3333 0 0 -1.3333 0 2666.7) scale(.1)"
      ></path>
      <path
        fill="#9e8fae"
        d="M4896.5 8243.7h-826.15c-22.04 0-39.9 17.9-39.9 39.9v21.3c0 22 17.86 39.9 39.9 39.9h826.15c22.04 0 39.9-17.9 39.9-39.9v-21.3c0-22-17.86-39.9-39.9-39.9"
        transform="matrix(1.3333 0 0 -1.3333 0 2666.7) scale(.1)"
      ></path>
      <path
        fill="#2191f2"
        d="M4129.5 10834c-54.73 0-99.09 44.4-99.09 99.1 0 54.8 44.36 99.1 99.09 99.1 54.72 0 99.09-44.3 99.09-99.1 0-54.7-44.37-99.1-99.09-99.1"
        transform="matrix(1.3333 0 0 -1.3333 0 2666.7) scale(.1)"
      ></path>
      <path
        fill="#9e8fae"
        d="M5171.5 10887h-826.15c-22.03 0-39.9 17.9-39.9 39.9v21.3c0 22.1 17.87 39.9 39.9 39.9h826.15c22.04 0 39.9-17.8 39.9-39.9v-21.3c0-22-17.86-39.9-39.9-39.9"
        transform="matrix(1.3333 0 0 -1.3333 0 2666.7) scale(.1)"
      ></path>
      <path
        fill="#2191f2"
        d="M4129.5 10543c-54.73 0-99.09 44.4-99.09 99.1 0 54.8 44.36 99.1 99.09 99.1 54.72 0 99.09-44.3 99.09-99.1 0-54.7-44.37-99.1-99.09-99.1"
        transform="matrix(1.3333 0 0 -1.3333 0 2666.7) scale(.1)"
      ></path>
      <path
        fill="#9e8fae"
        d="M5515.3 10596H4345.4c-22.03 0-39.9 17.9-39.9 39.9v21.3c0 22.1 17.87 39.9 39.9 39.9h1169.9c22.04 0 39.9-17.8 39.9-39.9v-21.3c0-22-17.86-39.9-39.9-39.9"
        transform="matrix(1.3333 0 0 -1.3333 0 2666.7) scale(.1)"
      ></path>
      <path
        fill="#2191f2"
        d="M4129.5 9734.1c-54.73 0-99.09 44.3-99.09 99.1 0 54.7 44.36 99 99.09 99 54.72 0 99.09-44.3 99.09-99 0-54.8-44.37-99.1-99.09-99.1"
        transform="matrix(1.3333 0 0 -1.3333 0 2666.7) scale(.1)"
      ></path>
      <path
        fill="#9e8fae"
        d="M5786.2 9786.6H4345.3c-22.03 0-39.9 17.9-39.9 39.9v21.4c0 22 17.87 39.9 39.9 39.9h1440.9c22.04 0 39.9-17.9 39.9-39.9v-21.4c0-22-17.86-39.9-39.9-39.9"
        transform="matrix(1.3333 0 0 -1.3333 0 2666.7) scale(.1)"
      ></path>
      <path
        fill="#2191f2"
        d="M4129.5 9442.9c-54.73 0-99.09 44.3-99.09 99.1 0 54.7 44.36 99 99.09 99 54.72 0 99.09-44.3 99.09-99 0-54.8-44.37-99.1-99.09-99.1"
        transform="matrix(1.3333 0 0 -1.3333 0 2666.7) scale(.1)"
      ></path>
      <path
        fill="#9e8fae"
        d="M5292.8 9495.4h-947.48c-22.03 0-39.9 17.9-39.9 39.9v21.4c0 22 17.87 39.9 39.9 39.9h947.48c22.04 0 39.9-17.9 39.9-39.9v-21.4c0-22-17.86-39.9-39.9-39.9"
        transform="matrix(1.3333 0 0 -1.3333 0 2666.7) scale(.1)"
      ></path>
      <path
        fill="#2191f2"
        d="M4383.7 9177.3c-43.2 0-78.21 35-78.21 78.2s35.01 78.2 78.21 78.2c43.19 0 78.2-35 78.2-78.2s-35.01-78.2-78.2-78.2"
        transform="matrix(1.3333 0 0 -1.3333 0 2666.7) scale(.1)"
      ></path>
      <path
        fill="#9e8fae"
        d="M6174.5 9218.7H4562.4c-22.03 0-39.9 17.9-39.9 40 0 22 17.87 39.9 39.9 39.9h1612.1c22.04 0 39.9-17.9 39.9-39.9 0-22.1-17.86-40-39.9-40"
        transform="matrix(1.3333 0 0 -1.3333 0 2666.7) scale(.1)"
      ></path>
      <path
        fill="#2191f2"
        d="M4383.7 8947.4c-43.2 0-78.21 35-78.21 78.2s35.01 78.2 78.21 78.2c43.19 0 78.2-35 78.2-78.2s-35.01-78.2-78.2-78.2"
        transform="matrix(1.3333 0 0 -1.3333 0 2666.7) scale(.1)"
      ></path>
      <path
        fill="#9e8fae"
        d="M5515.3 8988.9h-952.86c-22.03 0-39.9 17.9-39.9 39.9 0 22.1 17.87 39.9 39.9 39.9h952.86c22.04 0 39.9-17.8 39.9-39.9 0-22-17.86-39.9-39.9-39.9"
        transform="matrix(1.3333 0 0 -1.3333 0 2666.7) scale(.1)"
      ></path>
      <path
        fill="#4f5569"
        d="M7075.6 14581c-44.57 0-80.71 36.1-80.71 80.7s36.14 80.7 80.71 80.7 80.7-36.1 80.7-80.7-36.13-80.7-80.7-80.7"
        transform="matrix(1.3333 0 0 -1.3333 0 2666.7) scale(.1)"
      ></path>
      <path
        fill="#ffcb30"
        d="M8286.6 14581h-808.94c-44.58 0-80.71 36.1-80.71 80.7s36.13 80.7 80.71 80.7h808.94c44.58 0 80.71-36.1 80.71-80.7s-36.13-80.7-80.71-80.7"
        transform="matrix(1.3333 0 0 -1.3333 0 2666.7) scale(.1)"
      ></path>
      <path
        fill="#e4464a"
        d="M10296 14581H8687.6c-44.57 0-80.71 36.1-80.71 80.7s36.14 80.7 80.71 80.7H10296c44.6 0 80.7-36.1 80.7-80.7s-36.1-80.7-80.7-80.7"
        transform="matrix(1.3333 0 0 -1.3333 0 2666.7) scale(.1)"
      ></path>
      <path
        fill="#4f5569"
        d="M7075.6 14106c-44.57 0-80.71 36.1-80.71 80.7s36.14 80.7 80.71 80.7 80.7-36.1 80.7-80.7-36.13-80.7-80.7-80.7"
        transform="matrix(1.3333 0 0 -1.3333 0 2666.7) scale(.1)"
      ></path>
      <path
        fill="#1957c2"
        d="M9734.6 14106H7477.7c-44.58 0-80.71 36.1-80.71 80.7s36.13 80.7 80.71 80.7h2256.9c44.57 0 80.71-36.1 80.71-80.7s-36.14-80.7-80.71-80.7"
        transform="matrix(1.3333 0 0 -1.3333 0 2666.7) scale(.1)"
      ></path>
      <path
        fill="#ffcb30"
        d="M14241 14106h-4105.4c-44.6 0-80.8 36.1-80.8 80.7s36.2 80.7 80.8 80.7H14241c44.6 0 80.7-36.1 80.7-80.7s-36.1-80.7-80.7-80.7"
        transform="matrix(1.3333 0 0 -1.3333 0 2666.7) scale(.1)"
      ></path>
      <path
        fill="#4f5569"
        d="M7075.6 13631c-44.57 0-80.71 36.2-80.71 80.7 0 44.6 36.14 80.8 80.71 80.8s80.7-36.2 80.7-80.8c0-44.5-36.13-80.7-80.7-80.7"
        transform="matrix(1.3333 0 0 -1.3333 0 2666.7) scale(.1)"
      ></path>
      <path
        fill="#1957c2"
        d="M8286.6 13631h-808.94c-44.58 0-80.71 36.2-80.71 80.7 0 44.6 36.13 80.8 80.71 80.8h808.94c44.58 0 80.71-36.2 80.71-80.8 0-44.5-36.13-80.7-80.71-80.7"
        transform="matrix(1.3333 0 0 -1.3333 0 2666.7) scale(.1)"
      ></path>
      <path
        fill="#4f5569"
        d="M7075.6 13156c-44.57 0-80.71 36.1-80.71 80.7s36.14 80.7 80.71 80.7 80.7-36.1 80.7-80.7-36.13-80.7-80.7-80.7"
        transform="matrix(1.3333 0 0 -1.3333 0 2666.7) scale(.1)"
      ></path>
      <path
        fill="#e4464a"
        d="M7877.8 13156h-400.14c-44.58 0-80.71 36.1-80.71 80.7s36.13 80.7 80.71 80.7h400.14c44.58 0 80.71-36.1 80.71-80.7s-36.13-80.7-80.71-80.7"
        transform="matrix(1.3333 0 0 -1.3333 0 2666.7) scale(.1)"
      ></path>
      <path
        fill="#9e8fae"
        d="M9734.6 13156H8279c-44.57 0-80.71 36.1-80.71 80.7s36.14 80.7 80.71 80.7h1455.6c44.57 0 80.71-36.1 80.71-80.7s-36.14-80.7-80.71-80.7"
        transform="matrix(1.3333 0 0 -1.3333 0 2666.7) scale(.1)"
      ></path>
      <path
        fill="#4f5569"
        d="M7075.6 12681c-44.57 0-80.71 36.1-80.71 80.7 0 44.5 36.14 80.7 80.71 80.7s80.7-36.2 80.7-80.7c0-44.6-36.13-80.7-80.7-80.7"
        transform="matrix(1.3333 0 0 -1.3333 0 2666.7) scale(.1)"
      ></path>
      <path
        fill="#9e8fae"
        d="M8771.8 12681h-808.94c-44.57 0-80.71 36.1-80.71 80.7 0 44.5 36.14 80.7 80.71 80.7h808.94c44.57 0 80.7-36.2 80.7-80.7 0-44.6-36.13-80.7-80.7-80.7"
        transform="matrix(1.3333 0 0 -1.3333 0 2666.7) scale(.1)"
      ></path>
      <path
        fill="#0c97b3"
        d="M11147 12681H9173c-44.58 0-80.71 36.1-80.71 80.7 0 44.5 36.13 80.7 80.71 80.7h1974c44.6 0 80.7-36.2 80.7-80.7 0-44.6-36.1-80.7-80.7-80.7"
        transform="matrix(1.3333 0 0 -1.3333 0 2666.7) scale(.1)"
      ></path>
      <path
        fill="#4f5569"
        d="M7075.6 12206c-44.57 0-80.71 36.2-80.71 80.7 0 44.6 36.14 80.7 80.71 80.7s80.7-36.1 80.7-80.7c0-44.5-36.13-80.7-80.7-80.7"
        transform="matrix(1.3333 0 0 -1.3333 0 2666.7) scale(.1)"
      ></path>
      <path
        fill="#ffcb30"
        d="M15075 12206H7962.9c-44.57 0-80.71 36.2-80.71 80.7 0 44.6 36.14 80.7 80.71 80.7H15075c44.6 0 80.7-36.1 80.7-80.7 0-44.5-36.1-80.7-80.7-80.7"
        transform="matrix(1.3333 0 0 -1.3333 0 2666.7) scale(.1)"
      ></path>
      <path
        fill="#f5ab35"
        d="M16220 12108h-814c-44.2 0-80 35.8-80 80 0 44.3 35.8 80.1 80 80.1h814c44.3 0 80.1-35.8 80.1-80.1 0-44.2-35.8-80-80.1-80"
        transform="matrix(1.3333 0 0 -1.3333 0 2666.7) scale(.1) scale(1.0081)"
      ></path>
      <path
        fill="#f5ab35"
        d="M16220 12121h-814c-44.2 0-80 35.8-80 80.1 0 44.2 35.8 80 80 80h814c44.3 0 80.1-35.8 80.1-80 0-44.3-35.8-80.1-80.1-80.1"
        transform="matrix(1.3333 0 0 -1.3333 0 2666.7) scale(.1) scale(1.0081)"
      ></path>
      <path
        fill="#4f5569"
        d="M7075.6 11731c-44.57 0-80.71 36.1-80.71 80.7s36.14 80.7 80.71 80.7 80.7-36.1 80.7-80.7-36.13-80.7-80.7-80.7M7075.6 11256c-44.57 0-80.71 36.1-80.71 80.7 0 44.5 36.14 80.7 80.71 80.7s80.7-36.2 80.7-80.7c0-44.6-36.13-80.7-80.7-80.7"
        transform="matrix(1.3333 0 0 -1.3333 0 2666.7) scale(.1)"
      ></path>
      <path
        fill="#0c97b3"
        d="M14410 11256H8520.2c-44.58 0-80.71 36.1-80.71 80.7 0 44.5 36.13 80.7 80.71 80.7H14410c44.6 0 80.7-36.2 80.7-80.7 0-44.6-36.1-80.7-80.7-80.7"
        transform="matrix(1.3333 0 0 -1.3333 0 2666.7) scale(.1)"
      ></path>
      <path
        fill="#ffcb30"
        d="M16220 11166h-1509.4c-44.2 0-80.1 35.9-80.1 80.1s35.9 80.1 80.1 80.1H16220c44.3 0 80.1-35.9 80.1-80.1s-35.8-80.1-80.1-80.1"
        transform="matrix(1.3333 0 0 -1.3333 0 2666.7) scale(.1) scale(1.0081)"
      ></path>
      <path
        fill="#4f5569"
        d="M7075.6 10781c-44.57 0-80.71 36.2-80.71 80.7 0 44.6 36.14 80.7 80.71 80.7s80.7-36.1 80.7-80.7c0-44.5-36.13-80.7-80.7-80.7"
        transform="matrix(1.3333 0 0 -1.3333 0 2666.7) scale(.1)"
      ></path>
      <path
        fill="#e4464a"
        d="M8358.7 10781h-395.83c-44.57 0-80.71 36.2-80.71 80.7 0 44.6 36.14 80.7 80.71 80.7h395.83c44.58 0 80.71-36.1 80.71-80.7 0-44.5-36.13-80.7-80.71-80.7"
        transform="matrix(1.3333 0 0 -1.3333 0 2666.7) scale(.1)"
      ></path>
      <path
        fill="#4f5569"
        d="M7075.6 10312c-44.57 0-80.71 36.2-80.71 80.7 0 44.6 36.14 80.8 80.71 80.8s80.7-36.2 80.7-80.8c0-44.5-36.13-80.7-80.7-80.7"
        transform="matrix(1.3333 0 0 -1.3333 0 2666.7) scale(.1)"
      ></path>
      <path
        fill="#9e8fae"
        d="M8771.8 10312h-808.94c-44.57 0-80.71 36.2-80.71 80.7 0 44.6 36.14 80.8 80.71 80.8h808.94c44.57 0 80.7-36.2 80.7-80.8 0-44.5-36.13-80.7-80.7-80.7"
        transform="matrix(1.3333 0 0 -1.3333 0 2666.7) scale(.1)"
      ></path>
      <path
        fill="#0c97b3"
        d="M11147 10312H9173c-44.58 0-80.71 36.2-80.71 80.7 0 44.6 36.13 80.8 80.71 80.8h1974c44.6 0 80.7-36.2 80.7-80.8 0-44.5-36.1-80.7-80.7-80.7"
        transform="matrix(1.3333 0 0 -1.3333 0 2666.7) scale(.1)"
      ></path>
      <path
        fill="#4f5569"
        d="M7075.6 9837.2c-44.57 0-80.71 36.1-80.71 80.7s36.14 80.7 80.71 80.7 80.7-36.1 80.7-80.7-36.13-80.7-80.7-80.7"
        transform="matrix(1.3333 0 0 -1.3333 0 2666.7) scale(.1)"
      ></path>
      <path
        fill="#ffcb30"
        d="M15075 9837.2H7962.9c-44.57 0-80.71 36.1-80.71 80.7s36.14 80.7 80.71 80.7H15075c44.6 0 80.7-36.1 80.7-80.7s-36.1-80.7-80.7-80.7"
        transform="matrix(1.3333 0 0 -1.3333 0 2666.7) scale(.1)"
      ></path>
      <path
        fill="#f5ab35"
        d="M16220 9758.2h-814c-44.2 0-80 35.81-80 80.05s35.8 80.05 80 80.05h814c44.3 0 80.1-35.81 80.1-80.05s-35.8-80.05-80.1-80.05"
        transform="matrix(1.3333 0 0 -1.3333 0 2666.7) scale(.1) scale(1.0081)"
      ></path>
      <path
        fill="#f5ab35"
        d="M16220 9771.5h-814c-44.2 0-80 35.91-80 80.05 0 44.25 35.8 80.09 80 80.09h814c44.3 0 80.1-35.84 80.1-80.09 0-44.14-35.8-80.05-80.1-80.05"
        transform="matrix(1.3333 0 0 -1.3333 0 2666.7) scale(.1) scale(1.0081)"
      ></path>
      <path
        fill="#4f5569"
        d="M7075.6 9362.2c-44.57 0-80.71 36.1-80.71 80.7 0 44.5 36.14 80.7 80.71 80.7s80.7-36.2 80.7-80.7c0-44.6-36.13-80.7-80.7-80.7"
        transform="matrix(1.3333 0 0 -1.3333 0 2666.7) scale(.1)"
      ></path>
      <path
        fill="#e4464a"
        d="M16229 8265.2H7522.1c-39.36 0-71.26 31.87-71.26 71.25 0 39.29 31.9 71.24 71.26 71.24H16229c39.2 0 71.2-31.95 71.2-71.24 0-39.38-32-71.25-71.2-71.25"
        transform="matrix(1.3333 0 0 -1.3333 0 2666.7) scale(.1) scale(1.1327)"
      ></path>
      <path
        fill="#4f5569"
        d="M7075.6 8887.1c-44.57 0-80.71 36.2-80.71 80.7 0 44.6 36.14 80.7 80.71 80.7s80.7-36.1 80.7-80.7c0-44.5-36.13-80.7-80.7-80.7"
        transform="matrix(1.3333 0 0 -1.3333 0 2666.7) scale(.1)"
      ></path>
      <path
        fill="#0c97b3"
        d="M10165 8887.1H8520.4c-44.58 0-80.71 36.2-80.71 80.7 0 44.6 36.13 80.7 80.71 80.7H10165c44.6 0 80.7-36.1 80.7-80.7 0-44.5-36.1-80.7-80.7-80.7"
        transform="matrix(1.3333 0 0 -1.3333 0 2666.7) scale(.1)"
      ></path>
      <path
        fill="#9e8fae"
        d="M14410 8887.1h-3767.1c-44.6 0-80.7 36.2-80.7 80.7 0 44.6 36.1 80.7 80.7 80.7H14410c44.6 0 80.7-36.1 80.7-80.7 0-44.5-36.1-80.7-80.7-80.7"
        transform="matrix(1.3333 0 0 -1.3333 0 2666.7) scale(.1)"
      ></path>
      <path
        fill="#ffcb30"
        d="M16220 8815.7h-1509.4c-44.2 0-80.1 35.91-80.1 80.05 0 44.25 35.9 80.05 80.1 80.05H16220c44.3 0 80.1-35.8 80.1-80.05 0-44.14-35.8-80.05-80.1-80.05"
        transform="matrix(1.3333 0 0 -1.3333 0 2666.7) scale(.1) scale(1.0081)"
      ></path>
      <path
        fill="#4f5569"
        d="M7075.6 8412.1c-44.57 0-80.71 36.1-80.71 80.7s36.14 80.7 80.71 80.7 80.7-36.1 80.7-80.7-36.13-80.7-80.7-80.7"
        transform="matrix(1.3333 0 0 -1.3333 0 2666.7) scale(.1)"
      ></path>
      <path
        fill="#f5ab35"
        d="M8358.7 8412.1h-395.83c-44.57 0-80.71 36.1-80.71 80.7s36.14 80.7 80.71 80.7h395.83c44.58 0 80.71-36.1 80.71-80.7s-36.13-80.7-80.71-80.7"
        transform="matrix(1.3333 0 0 -1.3333 0 2666.7) scale(.1)"
      ></path>
      <path
        fill="#4f5569"
        d="M7075.6 7943.3c-44.57 0-80.71 36.1-80.71 80.7s36.14 80.7 80.71 80.7 80.7-36.1 80.7-80.7-36.13-80.7-80.7-80.7"
        transform="matrix(1.3333 0 0 -1.3333 0 2666.7) scale(.1)"
      ></path>
      <path
        fill="#9e8fae"
        d="M8771.8 7943.3h-808.94c-44.57 0-80.71 36.1-80.71 80.7s36.14 80.7 80.71 80.7h808.94c44.57 0 80.7-36.1 80.7-80.7s-36.13-80.7-80.7-80.7"
        transform="matrix(1.3333 0 0 -1.3333 0 2666.7) scale(.1)"
      ></path>
      <path
        fill="#0c97b3"
        d="M11147 7943.3H9173c-44.58 0-80.71 36.1-80.71 80.7s36.13 80.7 80.71 80.7h1974c44.6 0 80.7-36.1 80.7-80.7s-36.1-80.7-80.7-80.7"
        transform="matrix(1.3333 0 0 -1.3333 0 2666.7) scale(.1)"
      ></path>
      <path
        fill="#4f5569"
        d="M7075.6 7468.3c-44.57 0-80.71 36.1-80.71 80.7 0 44.5 36.14 80.7 80.71 80.7s80.7-36.2 80.7-80.7c0-44.6-36.13-80.7-80.7-80.7"
        transform="matrix(1.3333 0 0 -1.3333 0 2666.7) scale(.1)"
      ></path>
      <path
        fill="#ffcb30"
        d="M15075 7468.3H7962.9c-44.57 0-80.71 36.1-80.71 80.7 0 44.5 36.14 80.7 80.71 80.7H15075c44.6 0 80.7-36.2 80.7-80.7 0-44.6-36.1-80.7-80.7-80.7"
        transform="matrix(1.3333 0 0 -1.3333 0 2666.7) scale(.1)"
      ></path>
      <path
        fill="#f5ab35"
        d="M16220 7408.3h-814c-44.2 0-80 35.81-80 80.05 0 44.14 35.8 80.05 80 80.05h814c44.3 0 80.1-35.91 80.1-80.05 0-44.24-35.8-80.05-80.1-80.05"
        transform="matrix(1.3333 0 0 -1.3333 0 2666.7) scale(.1) scale(1.0081)"
      ></path>
      <path
        fill="#ffcb30"
        d="M16220 7421.6h-814c-44.2 0-80 35.81-80 80.05s35.8 80.05 80 80.05h814c44.3 0 80.1-35.81 80.1-80.05s-35.8-80.05-80.1-80.05"
        transform="matrix(1.3333 0 0 -1.3333 0 2666.7) scale(.1) scale(1.0081)"
      ></path>
      <path
        fill="#4f5569"
        d="M7075.6 6993.2c-44.57 0-80.71 36.2-80.71 80.7 0 44.6 36.14 80.7 80.71 80.7s80.7-36.1 80.7-80.7c0-44.5-36.13-80.7-80.7-80.7"
        transform="matrix(1.3333 0 0 -1.3333 0 2666.7) scale(.1)"
      ></path>
      <path
        fill="#0c97b3"
        d="M16229 6173.8H7522.1c-39.36 0-71.26 31.96-71.26 71.25 0 39.37 31.9 71.24 71.26 71.24H16229c39.2 0 71.2-31.87 71.2-71.24 0-39.29-32-71.25-71.2-71.25"
        transform="matrix(1.3333 0 0 -1.3333 0 2666.7) scale(.1) scale(1.1327)"
      ></path>
      <path
        fill="#4f5569"
        d="M7075.6 6518.2c-44.57 0-80.71 36.1-80.71 80.7s36.14 80.7 80.71 80.7 80.7-36.1 80.7-80.7-36.13-80.7-80.7-80.7"
        transform="matrix(1.3333 0 0 -1.3333 0 2666.7) scale(.1)"
      ></path>
      <path
        fill="#9e8fae"
        d="M14410 6518.2H8520.2c-44.58 0-80.71 36.1-80.71 80.7s36.13 80.7 80.71 80.7H14410c44.6 0 80.7-36.1 80.7-80.7s-36.1-80.7-80.7-80.7"
        transform="matrix(1.3333 0 0 -1.3333 0 2666.7) scale(.1)"
      ></path>
      <path
        fill="#e4464a"
        d="M16220 6465.8h-1509.4c-44.2 0-80.1 35.81-80.1 80.05s35.9 80.05 80.1 80.05H16220c44.3 0 80.1-35.81 80.1-80.05s-35.8-80.05-80.1-80.05"
        transform="matrix(1.3333 0 0 -1.3333 0 2666.7) scale(.1) scale(1.0081)"
      ></path>
      <path
        fill="#9e8fae"
        d="M16229 5754.5h-1343.4c-39.4 0-71.3 31.87-71.3 71.24 0 39.38 31.9 71.25 71.3 71.25H16229c39.2 0 71.2-31.87 71.2-71.25 0-39.37-32-71.24-71.2-71.24"
        transform="matrix(1.3333 0 0 -1.3333 0 2666.7) scale(.1) scale(1.1327)"
      ></path>
      <path
        fill="#4f5569"
        d="M7075.6 6043.2c-44.57 0-80.71 36.1-80.71 80.7 0 44.5 36.14 80.7 80.71 80.7s80.7-36.2 80.7-80.7c0-44.6-36.13-80.7-80.7-80.7"
        transform="matrix(1.3333 0 0 -1.3333 0 2666.7) scale(.1)"
      ></path>
      <path
        fill="#f5ab35"
        d="M8358.7 6043.2h-395.83c-44.57 0-80.71 36.1-80.71 80.7 0 44.5 36.14 80.7 80.71 80.7h395.83c44.58 0 80.71-36.2 80.71-80.7 0-44.6-36.13-80.7-80.71-80.7"
        transform="matrix(1.3333 0 0 -1.3333 0 2666.7) scale(.1)"
      ></path>
      <path
        fill="#1957c2"
        d="M6597.1 6813.7c-180.81 205.6-183.53 520.1-88.56 776.9 94.96 256.8 271.18 473.6 426.98 698.7s297.43 476 306.2 749.6c16.27 507.7-413.1 909-589.65 1385.2-44.73 120.7-72.49 245.5-85.61 372.3-108.07 1079 479.29 2283.1 1521.9 2650.2 132.16 58.7 308.36-29.4 308.36-161.5 14.69-293.7-264.31-528.7-264.31-837 0-29.4 14.69-88.1 29.37-102.8 528.63-293.7 631.42-822.3 88.1-1174.7-44.05-44.1-58.73-102.8-89.45-157.1-36.54-93.6-40.81-193.8-24.91-293.1 15.9-99.2 51.98-197.7 96.18-287.9 88.42-180.4 208.81-345.9 274.19-535.9 178.63-519-89.44-1083-408.06-1530-318.63-447-707.31-877.2-811.3-1416.2-33.31-172.6-36.85-355-114.62-512.7-77.78-157.6-266.24-282.2-427.72-212.7-10.69 47.4-21.39 94.8-32.09 142.2"
        transform="matrix(1.3333 0 0 -1.3333 0 2666.7) scale(.1)"
      ></path>
      <path
        fill="#031162"
        d="M7048.1 8420.8l-14.44 17.4c734.56 609.1 516.08 1521.6 304.77 2404-18.22 76.1-36.43 152.1-54.03 227.9-117.13 504.1 41.77 940.8 195.68 1218.3 166.61 300.3 363.68 484.3 365.65 486.1l15.35-16.6c-7.78-7.2-775.7-731.3-554.66-1682.7 17.59-75.7 35.79-151.7 54-227.8 212.91-889.1 433.07-1808.5-312.32-2426.6"
        transform="matrix(1.3333 0 0 -1.3333 0 2666.7) scale(.1)"
      ></path>
      <path
        fill="#7dadff"
        d="M5088.1 9888.3c-270.98 306.9-450.74 721.8-378.64 1124.7 72.09 403 451.96 758.2 858.52 710.4-225.88 352.8-458.85 726.9-480.23 1145.3-21.38 418.3 255.48 883.3 673.49 911.2 177.44 11.8 348.81-69.7 470.36-198.3 124.03-135 197.45-311.2 182.76-487.4-88.1 117.5 29.37 264.3 146.85 293.7 73.41 14.6 146.84 0 205.57-44.1 117.48-102.8 190.9-249.6 161.53-396.5-88.1-352.4-337.74-675.4-161.53-1042.5 279-558 528.64-1101.4 654.75-1707.1 24.68-98.3 47.71-197.3 67.93-296.8 20.26-99.4 37.68-199.5 52.23-300 38.81-268.3 55.35-551.8-50.89-801.2-126.52-297.1-413.43-512-502.84-822.3-141.84-492 258.11-1057 18.79-1509.7-173.35-327.9-638.89-387.4-942.99-218.8-433.55 240.3-444.28 809.6-333.76 1235.6 104.42 402.5 334.65 749.1 270.79 1188.2-22.19 152.4-76.59 284.6-150.85 404.2-192.41 309.8-518.07 535.4-761.84 811.4"
        transform="matrix(1.3333 0 0 -1.3333 0 2666.7) scale(.1)"
      ></path>
      <path
        fill="#ffcb30"
        d="M4983.7 6887.4h3028.2l-813.93-1621.3h-1497.4l-716.92 1621.3"
        transform="matrix(1.3333 0 0 -1.3333 0 2666.7) scale(.1)"
      ></path>
      <path
        fill="#031162"
        d="M6487.6 6970.7c-3.09 6.5-75.85 163.5-90.54 469.4-13.52 281.4 22.55 746.8 271.09 1365.6 339.35 844.9-107.22 1689.5-433.29 2306.2-132.91 251.4-247.69 468.5-281.91 633.9-116.91 565.1 212.95 1243.8 216.3 1250.6l20.28-10c-3.31-6.7-329.75-678.6-214.44-1236 33.57-162.2 147.65-378 279.76-627.9 328.13-620.6 777.52-1470.6 434.29-2325.2-246.67-614.2-282.75-1075.5-269.57-1354.4 14.25-302 87.73-461 88.47-462.5l-20.44-9.7"
        transform="matrix(1.3333 0 0 -1.3333 0 2666.7) scale(.1)"
      ></path>
      <path
        fill="#031162"
        d="M6689.9 8800.2l-22.46 2.6c44.34 379.7-38.73 949.2-686.3 1506.3-388.16 333.9-800.46 506.7-804.58 508.4l8.66 20.9c4.15-1.8 419.79-175.9 810.66-512.2 361.59-311 775.5-828.3 694.02-1526M6121.6 11329c-141.76 472-11.23 840 123.23 1065.6 145.6 244.4 327.44 379.1 329.25 380.5l13.37-18.3c-1.8-1.3-180.46-133.9-323.66-374.5-131.86-221.6-259.82-583.1-120.54-1046.8l-21.65-6.5"
        transform="matrix(1.3333 0 0 -1.3333 0 2666.7) scale(.1)"
      ></path>
      <path
        fill="#031162"
        d="M6609.8 8586l-22.56 1.5c24.41 357.5-31.61 848.1-437.06 1155.3-242.45 183.7-498.12 214.9-500.68 215.2l2.59 22.4c2.61-.3 264.42-32.2 511.73-219.6 413.51-313.3 470.76-811.8 445.98-1174.8M7385.7 10739l-22.53 2c28.32 323.3 126.38 757.2 432.66 988.2 184.26 138.9 353.98 137.9 361.19 137.9l-.32-22.6c-1.79-.3-170.35.6-348.51-134.3-298.7-226.3-394.63-653-422.49-971.2M5043.6 10987c-26.79 0-48.58-21.8-48.58-48.6s21.79-48.6 48.58-48.6c26.8 0 48.59 21.8 48.59 48.6s-21.79 48.6-48.59 48.6zm0-119.8c-39.25 0-71.19 31.9-71.19 71.2 0 39.2 31.94 71.2 71.19 71.2 39.26 0 71.19-32 71.19-71.2 0-39.3-31.93-71.2-71.19-71.2M8281.7 11938c-19.41 0-35.2-15.8-35.2-35.2s15.79-35.2 35.2-35.2c19.4 0 35.19 15.8 35.19 35.2s-15.79 35.2-35.19 35.2zm0-93c-31.88 0-57.8 25.9-57.8 57.8s25.92 57.8 57.8 57.8c31.87 0 57.8-25.9 57.8-57.8s-25.93-57.8-57.8-57.8M5485.6 10014c-24.13 0-43.76-19.7-43.76-43.8s19.63-43.8 43.76-43.8 43.76 19.7 43.76 43.8-19.63 43.8-43.76 43.8zm0-110.1c-36.6 0-66.37 29.7-66.37 66.3s29.77 66.4 66.37 66.4 66.37-29.8 66.37-66.4-29.77-66.3-66.37-66.3M6213.9 13134c-18.47 0-33.48-15-33.48-33.5s15.01-33.5 33.48-33.5c18.46 0 33.48 15 33.48 33.5s-15.02 33.5-33.48 33.5zm0-89.6c-30.93 0-56.09 25.2-56.09 56.1s25.16 56.1 56.09 56.1c30.92 0 56.09-25.2 56.09-56.1s-25.17-56.1-56.09-56.1M6676.5 12863c-18.46 0-33.48-15-33.48-33.5 0-18.4 15.02-33.4 33.48-33.4s33.48 15 33.48 33.4c0 18.5-15.02 33.5-33.48 33.5zm0-89.5c-30.93 0-56.08 25.1-56.08 56 0 31 25.15 56.1 56.08 56.1 30.92 0 56.08-25.1 56.08-56.1 0-30.9-25.16-56-56.08-56M7946.6 12964c-33.04 0-59.92-26.8-59.92-59.9 0-33 26.88-59.9 59.92-59.9 33.03 0 59.91 26.9 59.91 59.9 0 33.1-26.88 59.9-59.91 59.9zm0-142.4c-45.51 0-82.53 37-82.53 82.5s37.02 82.6 82.53 82.6c45.5 0 82.52-37.1 82.52-82.6s-37.02-82.5-82.52-82.5"
        transform="matrix(1.3333 0 0 -1.3333 0 2666.7) scale(.1)"
      ></path>
      <path
        fill="#ffcb30"
        d="M13096 9953.9c0-363.4-294.6-658-658-658-363.5 0-658.1 294.6-658.1 658s294.6 658 658.1 658c363.4 0 658-294.6 658-658"
        transform="matrix(1.3333 0 0 -1.3333 0 2666.7) scale(.1)"
      ></path>
      <path
        fill="#f8f8f8"
        d="M12096 9514.5c10.2 0 20.3 4 27.9 11.9 14.8 15.3 14.3 39.8-1.1 54.5-143.7 138.2-145.3 338.9-145.3 341 0 21.3-17.3 38.6-38.6 38.6s-38.6-17.3-38.6-38.6c0-9.6 1.9-235.9 169-396.6 7.5-7.2 17.1-10.8 26.7-10.8"
        transform="matrix(1.3333 0 0 -1.3333 0 2666.7) scale(.1)"
      ></path>
      <path
        fill="#031162"
        d="M15196 6045l539.5 2773.3-2072.3 2224.7 108.7 152.4 2181.3-2309.5-545.6-2811.2-211.6-29.7"
        transform="matrix(1.3333 0 0 -1.3333 0 2666.7) scale(.1)"
      ></path>
      <path
        fill="#031162"
        d="M13902 11057l242.3-256.5h-255.8l-83.3 89.5 96.8 167M15845 8331.1l-165.5 201.9 10.3 53.1 207.9 16.4-52.7-271.4"
        transform="matrix(1.3333 0 0 -1.3333 0 2666.7) scale(.1)"
      ></path>
      <path
        fill="#f8f8f8"
        d="M14598 5696.2c0-14.8-12-27-27-27h-357.7c-14.9 0-27.1 12.2-27.1 27v270.1c0 14.9 12.2 27 27.1 27h357.7c15 0 27-12.1 27-27v-270.1"
        transform="matrix(1.3333 0 0 -1.3333 0 2666.7) scale(.1)"
      ></path>
      <path
        fill="#031162"
        d="M14761 5741.2c-850.1 0-1539.3-198.43-1539.3-553.89h3078.7c0 355.46-689.1 553.89-1539.4 553.89"
        transform="matrix(1.3333 0 0 -1.3333 0 2666.7) scale(.1) scale(1.0367)"
      ></path>
      <path
        fill="#031162"
        d="M15302 5721.9c-160.3 0-128.3 121.5-68.5 229.3 22.7.2 45.5.4 68.5.4 194.5 0 380.9-10 553.3-29.6-88.9-59-325.7-200.1-553.3-200.1"
        transform="matrix(1.3333 0 0 -1.3333 0 2666.7) scale(.1)"
      ></path>
      <path
        fill="#1957c2"
        d="M13952 10860c-134.4-129.6-348.4-125.7-478 8.8-129.6 134.3-125.5 348.3 8.8 477.8 134.4 129.6 348.4 125.6 478-8.8 129.5-134.4 125.6-348.3-8.8-477.8"
        transform="matrix(1.3333 0 0 -1.3333 0 2666.7) scale(.1)"
      ></path>
      <path
        fill="#031162"
        d="M13831 10986c-64.9-62.5-168.3-60.6-230.8 4.3-62.6 64.9-60.7 168.2 4.3 230.8 64.9 62.6 168.2 60.7 230.8-4.3 62.5-64.8 60.6-168.2-4.3-230.8"
        transform="matrix(1.3333 0 0 -1.3333 0 2666.7) scale(.1)"
      ></path>
      <path
        fill="#1957c2"
        d="M16180 8853.2c0-186.6-151.4-338-338-338-186.7 0-338 151.4-338 338 0 186.7 151.3 338 338 338 186.6 0 338-151.3 338-338"
        transform="matrix(1.3333 0 0 -1.3333 0 2666.7) scale(.1)"
      ></path>
      <path
        fill="#031162"
        d="M16005 8853.2c0-90.1-73-163.2-163.2-163.2-90.1 0-163.3 73.1-163.3 163.2 0 90.2 73.2 163.3 163.3 163.3 90.2 0 163.2-73.1 163.2-163.3"
        transform="matrix(1.3333 0 0 -1.3333 0 2666.7) scale(.1)"
      ></path>
      <path
        fill="#1957c2"
        d="M15640 6059.9c0-186.7-151.3-338-337.9-338-186.7 0-338 151.3-338 338 0 186.6 151.3 338 338 338 186.6 0 337.9-151.4 337.9-338"
        transform="matrix(1.3333 0 0 -1.3333 0 2666.7) scale(.1)"
      ></path>
      <path
        fill="#031162"
        d="M15465 6059.9c0-90.1-73-163.3-163.2-163.3s-163.3 73.2-163.3 163.3 73.1 163.2 163.3 163.2 163.2-73.1 163.2-163.2M13588 10626l-359.2 372.6 152.3 146.7 359.1-372.5-152.2-146.8"
        transform="matrix(1.3333 0 0 -1.3333 0 2666.7) scale(.1)"
      ></path>
      <path
        fill="#1957c2"
        d="M11610 10409c657.6 633.8 1268.2 1044.9 1862.2 450.9 546-546 138.5-1210.5-519.1-1844.3L11610 10409"
        transform="matrix(1.3333 0 0 -1.3333 0 2666.7) scale(.1)"
      ></path>
      <path
        fill="#f8f8f8"
        d="M13717 11221c-62.2 0-112.4-50.3-112.4-112.4s50.2-112.4 112.4-112.4c62 0 112.3 50.3 112.3 112.4s-50.3 112.4-112.3 112.4M15842 8967.8c-62.1 0-112.4-50.3-112.4-112.4s50.3-112.4 112.4-112.4 112.4 50.3 112.4 112.4-50.3 112.4-112.4 112.4M15302 6172.3c-62.1 0-112.4-50.3-112.4-112.4s50.3-112.5 112.4-112.5 112.3 50.4 112.3 112.5-50.2 112.4-112.3 112.4"
        transform="matrix(1.3333 0 0 -1.3333 0 2666.7) scale(.1)"
      ></path>
      <path
        fill="#d3d3d3"
        d="M11160 2180.7c-29.5 0-59.5 5.2-89.7 16.7-199.1 75.7-209.8 345.3-283.5 545.3-96.7 262.3-366.7 450.6-646.3 450.7h-.3c-197.73 0-391.03-94.1-520.9-241.9-115.82-131.7-114.83-400.2-269.43-477.1-49.38-24.6-91.62-35.7-127.76-35.7-312.15 0-167.95 829.9-217.9 984.7-92.73 287.5-418.68 434.4-719.61 461-54.16 4.8-108.3 6.9-162.45 6.9-257.39 0-514.85-46.3-772.62-64.2-57.96-4-116.66-6.4-175.48-6.4-257.78 0-517.54 45.3-724.46 193.7-254.12 182.3-385.89 561.5-211.36 821 112.68 167.6 322.88 247.7 524.65 255.4 13.11.5 26.18.7 39.27.7 188.24 0 373.58-50 556.7-96 1090.3-273.4 2214.2-410.5 3338.2-410.5 951.7 0 1903.6 98.3 2834.8 295.2 125.4 26.5 253.7 54.9 380.9 54.9 46.8 0 93.5-3.9 139.9-13.1 172.1-34.2 338.7-164.9 353.4-339.8 14.2-168.9-118-321.9-273.2-390.3-155.1-68.3-329.8-71.6-499.1-79.7-598.1-28.3-1192.8-129.1-1766.8-299.6 170.7-21.9 274-217.8 257.5-389.1-16.4-171.4-118.1-321-216.5-462.2-108.1-155-216.1-310.1-324.2-465.1-104.1-149.3-257.3-315.6-423.8-315.5"
        transform="matrix(1.3333 0 0 -1.3333 0 2666.7) scale(.1)"
      ></path>
      <path
        fill="#031162"
        d="M8096 5983.2l4809.6 209.9-297.4-1087-2800.4-1174.4-1783.4 794.9 71.57 1256.6"
        transform="matrix(1.3333 0 0 -1.3333 0 2666.7) scale(.1)"
      ></path>
      <path
        fill="#ff654d"
        d="M8609.1 6443.4l41.72-854.9h3675l92.6 1789.7-3809.4-934.8"
        transform="matrix(1.3333 0 0 -1.3333 0 2666.7) scale(.1)"
      ></path>
      <path
        fill="#ff654d"
        d="M9790.9 9763s-1569.4-318.1-1858-555c-288.66-237-574.56-3144.4-476.99-3278.6 97.57-134.1 5970.9-271.2 6106.2-19.8 135.4 251.5-618.8 3262.5-821.9 3413.4-203.1 150.8-2451.8 473.9-2949.3 440"
        transform="matrix(1.3333 0 0 -1.3333 0 2666.7) scale(.1)"
      ></path>
      <path
        fill="#000d41"
        d="M12326 6686.9l-1.5.1c-9.5.8-16.6 9.2-15.8 18.7 48 553.9.5 2113.7 0 2129.4-.3 9.5 7.2 17.5 16.7 17.8 8.8.7 17.5-7.2 17.8-16.7.5-15.7 48.1-1577.6 0-2133.5-.8-9-8.4-15.8-17.2-15.8M8448.9 6743.6l-1.99.1c-9.48 1.1-16.29 9.7-15.21 19.2 74.96 655.7-60.17 2002.6-61.54 2016.1-.97 9.5 5.95 18 15.44 18.9a17.2 17.2 0 0018.95-15.4c1.37-13.6 136.87-1364.2 61.49-2023.5-1-8.9-8.48-15.4-17.14-15.4"
        transform="matrix(1.3333 0 0 -1.3333 0 2666.7) scale(.1)"
      ></path>
      <path
        fill="#febac7"
        d="M8994 6050.3l-74.12 299.5c-5.09 20.5 6.73 41.5 26.95 47.8l101.45 31.5a39.96 39.96 0 0127.45 30.9l17.23 93c3.51 18.9 20.03 32.7 39.3 32.7h82.98c13.78 0 26.59 7.1 33.89 18.7l50.6 81c11.5 18.4 35.59 24.3 54.27 13.2l96.06-56.9c12.26-7.3 27.45-7.5 39.89-.5l56.39 31.5c18.26 10.2 41.3 4.6 52.84-12.8l202.06-305.4c12.49-18.8 6.82-44.3-12.49-56.1l-44.76-27.4c-16.54-10.1-37.94-6.9-50.78 7.7-26.46 29.9-75.59 6.8-69.43-32.7l2.07-13.3c2.69-17.2-6.14-34.2-21.8-42l-396.25-195.5c-2.61-1.3-5.28-2.3-8.11-3-24.86-6.1-146.58-31.7-200.15 45.4-2.66 3.8-4.43 8.2-5.54 12.7M11786 6050.3l74.2 299.5c5 20.5-6.8 41.5-27 47.8l-101.4 31.5c-14.2 4.4-24.8 16.3-27.5 30.9l-17.2 93c-3.5 18.9-20 32.7-39.3 32.7h-83c-13.8 0-26.6 7.1-33.9 18.7l-50.6 81c-11.5 18.4-35.6 24.3-54.3 13.2l-96-56.9c-12.3-7.3-27.5-7.5-39.9-.5l-56.4 31.5c-18.2 10.2-41.3 4.6-52.8-12.8l-202.1-305.4c-12.5-18.8-6.8-44.3 12.5-56.1l44.8-27.4c16.5-10.1 37.9-6.9 50.7 7.7 26.5 29.9 75.6 6.8 69.5-32.7l-2.1-13.3c-2.7-17.2 6.1-34.2 21.8-42l396.2-195.5c2.7-1.3 5.3-2.3 8.2-3 24.8-6.1 146.5-31.7 200.1 45.4 2.7 3.8 4.4 8.2 5.5 12.7"
        transform="matrix(1.3333 0 0 -1.3333 0 2666.7) scale(.1)"
      ></path>
      <path
        fill="#000d41"
        d="M8918.7 6452.1l-2.54.2-939.56 138.4c-9.45 1.4-15.98 10.2-14.59 19.6 1.4 9.4 10.22 16 19.62 14.6l939.56-138.4c9.45-1.4 15.97-10.2 14.58-19.6-1.27-8.6-8.65-14.8-17.07-14.8M11944 6402.3c-8.2 0-15.5 5.9-17 14.3-1.7 9.4 4.6 18.3 14 20l763.8 136.3c9.4 1.7 18.4-4.6 20-14 1.7-9.4-4.5-18.4-13.9-20.1l-763.9-136.2c-1-.2-2-.3-3-.3"
        transform="matrix(1.3333 0 0 -1.3333 0 2666.7) scale(.1)"
      ></path>
      <path
        fill="#febac7"
        d="M9540.2 10436s-131.84-1133.6 675.45-1133.6c734.4 0 708.8 975.3 708.8 975.3s73.4 603.6-495.9 671.9c-569.33 68.3-922.7-309.9-888.35-513.6"
        transform="matrix(1.3333 0 0 -1.3333 0 2666.7) scale(.1)"
      ></path>
      <path
        fill="#031162"
        d="M10729 10808s-179.4-351.4 2.4-529.9c116.1-113.8 167.4-278.1 130.1-436.4l-1.9-8.5s304.8 241.5 361.3 731.1c56.4 489.6-165.7 797.7-353.8 763 0 0-74.9 376.1-552.7 340.9-477.76-35.1-872.09 3.6-1045.1-375.1-173.02-378.8 128.56-710.5 128.56-710.5s23.54-400.8 186.62-749.6l-63.65 468.1s524.97 705.3 1208.2 506.9"
        transform="matrix(1.3333 0 0 -1.3333 0 2666.7) scale(.1)"
      ></path>
      <path
        fill="#febac7"
        d="M10915 10217l-55.6-383.8s271.3 144.1 267 339.5c-1.5 65.1-24.1 101.1-53.6 120.1-62.9 40.6-147-1.7-157.8-75.8M9541.7 10327l47-494.2s-260.77 151.1-256.43 346.6c4.35 195.4 209.43 147.6 209.43 147.6"
        transform="matrix(1.3333 0 0 -1.3333 0 2666.7) scale(.1)"
      ></path>
      <path
        fill="#f8f8f8"
        d="M11678 7678.6H8959.3c-119.53 0-216.42-96.9-216.42-216.4V5668c0-119.5 96.89-216.4 216.42-216.4H11678c119.5 0 216.4 96.9 216.4 216.4v1794.2c0 119.5-96.9 216.4-216.4 216.4"
        transform="matrix(1.3333 0 0 -1.3333 0 2666.7) scale(.1)"
      ></path>
      <path
        fill="#746980"
        d="M11842 5346.8H8795.3c-28.95 0-52.41 23.4-52.41 52.4 0 28.9 23.46 52.4 52.41 52.4H11842c28.9 0 52.4-23.5 52.4-52.4 0-29-23.5-52.4-52.4-52.4"
        transform="matrix(1.3333 0 0 -1.3333 0 2666.7) scale(.1)"
      ></path>
      <path
        fill="#9e8fae"
        d="M11388 5403.1c0-12.3-10-22.3-22.3-22.3s-22.3 10-22.3 22.3 10 22.3 22.3 22.3 22.3-10 22.3-22.3M11109 5380.8h180.3v44.6H11109v-44.6"
        transform="matrix(1.3333 0 0 -1.3333 0 2666.7) scale(.1)"
      ></path>
      <path
        fill="#1957c2"
        d="M7084.2 6711.6L11258.8 4177c-336.1-272.9-523.1-629.4-598.3-1048.7L6312 5318.2c-437.73 220.5-574.74 780-288.38 1177.7 243.09 337.7 704.98 431.6 1060.6 215.7"
        transform="matrix(1.3333 0 0 -1.3333 0 2666.7) scale(.1)"
      ></path>
      <path
        fill="#031162"
        d="M10052 3792.2l-265.07-223.8 524.37-264.1c156.9 135.1 462.8 395.6 508.4 413 61.6 23.5-767.7 74.9-767.7 74.9"
        transform="matrix(1.3333 0 0 -1.3333 0 2666.7) scale(.1)"
      ></path>
      <path
        fill="#031162"
        d="M11259 4177l695.3-391.8c51.9-29.2 70-95.1 40.3-146.8-183.4-319.8-795.1-1353.6-1118.4-1494.1 0 0-261 83.8-161 425.1 99.9 341.2-34.6 656.9-34.6 656.9s22.7 795.5 578.4 950.7"
        transform="matrix(1.3333 0 0 -1.3333 0 2666.7) scale(.1)"
      ></path>
      <path
        fill="#2c4b80"
        d="M10876 2144.3c323.3 140.5 935 1174.3 1118.4 1494.1 23.4 40.8 17 90.3-12.2 123.8-124.2-73.5-662.2-447.1-1106.2-1617.9"
        transform="matrix(1.3333 0 0 -1.3333 0 2666.7) scale(.1)"
      ></path>
      <path
        fill="#1957c2"
        d="M13450 6425.4L9039.3 4328.5c306.59-305.6 456.42-679.3 488.61-1104.1l4548.6 1736.3c457.9 174.8 651.1 717.5 406.7 1142.3-207.5 360.6-657.5 501-1033.2 322.4"
        transform="matrix(1.3333 0 0 -1.3333 0 2666.7) scale(.1)"
      ></path>
      <path
        fill="#031162"
        d="M9039.4 4328.5l-731.51-319.1c-54.59-23.8-79.29-87.5-55.07-141.9 149.94-336.8 653.4-1427.4 960.68-1600.1 0 0 268.17 56.8 203.43 406.5-64.73 349.6 101.16 650 101.16 650s58.33 793.7-478.69 1004.6"
        transform="matrix(1.3333 0 0 -1.3333 0 2666.7) scale(.1)"
      ></path>
      <path
        fill="#2c4b80"
        d="M9213.5 2267.4c-307.28 172.7-810.74 1263.3-960.68 1600.1-19.11 42.9-7.67 91.6 24.8 121.9 116.09-85.7 613.32-512.1 935.88-1722"
        transform="matrix(1.3333 0 0 -1.3333 0 2666.7) scale(.1)"
      ></path>
      <path
        fill="#ff654d"
        d="M7463.3 6677.7c-31.18-405.5-37.31-707.1-7.41-748.3 27.43-37.7 511.39-75.6 1196-105.1l-1188.6 853.4M11868 5772.3c929.1 10.7 1647.8 51.3 1694.1 137.3 33.2 61.6 13 288.7-39.4 598.7l-1654.7-736"
        transform="matrix(1.3333 0 0 -1.3333 0 2666.7) scale(.1)"
      ></path>
      <path
        fill="#000d41"
        d="M9208.4 4391.5c-6.47 0-12.66 3.7-15.62 9.9-4.09 8.6-.43 18.9 8.19 23l791.15 376.1c8.62 4.1 18.92.5 23.02-8.1 4.1-8.7.4-19-8.2-23.1l-791.13-376.1c-2.4-1.1-4.92-1.7-7.41-1.7"
        transform="matrix(1.3333 0 0 -1.3333 0 2666.7) scale(.1)"
      ></path>
      <path
        fill="#ff654d"
        d="M7126.8 15082c0-111-89.99-200.9-200.99-200.9h-1852.1c-110.99 0-200.97 89.9-200.97 200.9v1016.6c0 111 89.98 201 200.97 201h1852.1c111.01 0 201-90 201-201V15082"
        transform="matrix(1.3333 0 0 -1.3333 0 2666.7) scale(.1) scale(1.0019)"
      ></path>
      <path
        fill="#f8f8f8"
        d="M5712.4 15222h147.12l423.3 796.5H6135.7l-423.3-796.5M6757.1 15596h-1.06l-227.75 322.2H6372.1l228.26-323.1-228.26-307.7h156.19l227.75 306.8h1.06l-.54.9.54.9M5264.8 15596h1.06l227.72 322.2h142.72l-228.27-323.1 228.27-307.7h-142.72l-227.72 306.8h-1.06l.53.9-.53.9"
        transform="matrix(1.3333 0 0 -1.3333 0 2666.7) scale(.1)"
      ></path>
      <path
        fill="#1957c2"
        d="M15537 13184c0-133-107.9-240.8-240.9-240.8H13077c-133 0-240.8 107.8-240.8 240.8v1218.1c0 133 107.8 240.8 240.8 240.8h2219.1c133 0 240.9-107.8 240.9-240.8V13184"
        transform="matrix(1.3333 0 0 -1.3333 0 2666.7) scale(.1)"
      ></path>
      <path
        fill="#f8f8f8"
        d="M13572 13834c-9.1-12.1-25.3-24.9-48.7-38.5l-26-17c7.5-6 16.2-11.7 26-16.9 16.6-10.6 28.9-19.3 36.8-26 7.9-6.8 14.1-15.9 18.7-27.2 4.5-11.3 6.8-26.7 6.8-46.4v-206.9c0-29.4 8.4-50.5 25.4-63.4 17-12.8 45.4-19.2 85.4-19.2v-85.9h-39.6c-60.3 0-103.5 10.5-129.5 31.6-26 21.2-39 56.6-39 106.4v244.2c0 23.4-4.2 40.2-12.5 50.3-8.2 10.3-21.1 15.3-38.4 15.3h-32.8v87.1h32.8c17.3 0 30.2 5.1 38.4 15.3 8.3 10.1 12.5 26.9 12.5 50.3v244.2c0 49.1 13 84.3 39 105.8s69.2 32.2 129.5 32.2h39.6v-85.9c-40 0-68.4-6.4-85.4-19.2s-25.4-34-25.4-63.4v-208c0-27.2-4.6-46.8-13.6-58.8M14969 13821v-87.1h-32.8c-17.3 0-30.1-5-38.4-15.3-8.3-10.1-12.4-26.9-12.4-50.3v-244.2c0-49.8-13.1-85.2-39.1-106.4-26-21.1-69.2-31.6-129.4-31.6h-39.6v85.9c39.9 0 68.4 6.4 85.3 19.2 17 12.9 25.5 34 25.5 63.4v206.9c0 19.7 2.2 35.1 6.8 46.4 4.5 11.3 10.7 20.4 18.6 27.2 8 6.7 20.2 15.4 36.8 26 9.8 5.2 18.5 10.9 26 16.9l-26 17c-23.4 13.6-39.6 26.4-48.7 38.5-9 12-13.5 31.6-13.5 58.8v208c0 29.4-8.5 50.6-25.5 63.4-16.9 12.8-45.4 19.2-85.3 19.2v85.9h39.6c60.2 0 103.4-10.7 129.4-32.2s39.1-56.7 39.1-105.8v-244.2c0-23.4 4.1-40.2 12.4-50.3 8.3-10.2 21.1-15.3 38.4-15.3h32.8"
        transform="matrix(1.3333 0 0 -1.3333 0 2666.7) scale(.1)"
      ></path>
      <path
        fill="#1957c2"
        d="M13084 15480c-58-363-399.2-610.2-762.2-552.2s-610.2 399.2-552.3 762.2c58.1 363 399.3 610.2 762.3 552.2s610.2-399.3 552.2-762.2"
        transform="matrix(1.3333 0 0 -1.3333 0 2666.7) scale(.1) scale(1.0871)"
      ></path>
      <path
        fill="#fff"
        d="M12539 16293l-13.5-84.9 92-14.7 13.6 84.9 45.9-7.4-32.5-203.3-45.9 7.3 12.8 80.2-92.1 14.7-12.7-80.2-46 7.4 32.5 203.3 45.9-7.3"
        transform="matrix(1.3333 0 0 -1.3333 0 2666.7) scale(.1) scale(1.0507)"
      ></path>
      <path
        fill="#fff"
        d="M12898 16273l-6.2-39-62.3 9.9-26.4-164.7-45.9 7.3 26.3 164.8-62 9.9 6.2 39 170.3-27.2"
        transform="matrix(1.3333 0 0 -1.3333 0 2666.7) scale(.1) scale(1.0486)"
      ></path>
      <path
        fill="#fff"
        d="M12999 16292l39.5-134.4 79.2 115.4 51.3-8.2-32.6-204.2-41.5 6.7 22 137.6-72.9-108.3-30 4.8-35.6 125.6-21.9-137.6-41.8 6.7 32.7 204.1 51.6-8.2"
        transform="matrix(1.3333 0 0 -1.3333 0 2666.7) scale(.1) scale(1.0465)"
      ></path>
      <path
        fill="#fff"
        d="M13296 16293l-26.3-164.3 87.7-14-6.4-40.4-133.9 21.4 32.6 204.7 46.3-7.4"
        transform="matrix(1.3333 0 0 -1.3333 0 2666.7) scale(.1) scale(1.0438)"
      ></path>
      <path
        fill="#1957c2"
        d="M2052.4 10886c-318.72 26.9-598.93-209.6-625.88-528.3-26.94-318.8 209.58-599 528.31-625.9 318.72-27 598.93 209.6 625.88 528.3 26.94 318.7-209.59 598.9-528.31 625.9"
        transform="matrix(1.3333 0 0 -1.3333 0 2666.7) scale(.1)"
      ></path>
      <path
        fill="#fff"
        d="M1788.8 10157c-50.15 4.3-88.9 29-117.26 68.5l43.99 56.5c23.81-30 52.52-46.4 75.46-48.3 27.75-2.4 46.26 13.3 48.97 45.3l15.25 180.3-128.59 10.9 6.04 71.5 213.41-18-21.47-254c-6.63-78.4-58.43-119.2-135.8-112.7M2145 10438c-28.28 2.3-48.34-6.2-50.05-26.4-5.82-68.9 196.44-47.3 184.54-181.7-6.18-73.1-73.02-107.2-155.71-100.2-61.36 5.2-120.73 33.8-159.85 73.2l39.41 65.9c35.55-37.4 88.1-63.8 127.59-67.2 34.68-2.9 56.56 8.1 58.51 31.1 5.95 70.4-196.54 46.2-185.35 178.5 5.73 67.7 67.5 105.5 153.94 98.2 52.28-4.4 103.22-24.9 138.48-52.6l-38.45-67.1c-37.5 26.8-83.17 45.7-113.06 48.3"
        transform="matrix(1.3333 0 0 -1.3333 0 2666.7) scale(.1)"
      ></path>
      <path
        fill="#ffcb30"
        d="M16300 4776.6c0-95.75-77.6-173.39-173.4-173.39h-934.4c-95.9 0-173.5 77.64-173.5 173.39v877.21c0 95.84 77.6 173.48 173.5 173.48h934.3c95.9 0 173.5-77.64 173.5-173.48V4776.6"
        transform="matrix(1.3333 0 0 -1.3333 0 2666.7) scale(.1) scale(1.0716)"
      ></path>
      <path
        fill="#fff"
        d="M16022 5669.6h-165.6v-97.93c-15.5-4.84-30.5-11.11-44.9-18.61l-69.3 69.43-117.1-117.02 69.3-69.34c-7.5-14.25-13.8-29.25-18.7-44.93h-98.1v-165.55h97.9c4.8-15.58 11.2-30.59 18.6-44.84l-69.4-69.43 117.1-117.12 69.2 69.34c14.4-7.5 29.4-13.77 45-18.71v-98.12h165.5v97.93c15.6 4.94 30.6 11.21 45 18.62l69.4-69.43 117 117.11-69.2 69.34c7.4 14.25 13.7 29.25 18.6 44.83h98.1v165.56h-97.9c-4.9 15.67-11.2 30.59-18.6 44.93l69.4 69.43-117.1 117.02-69.3-69.24c-14.3 7.41-29.2 13.77-44.9 18.71zm-32.1-32.1v-89.57l22.5-7.03c13.4-4.27 26.8-9.88 39.6-16.53l20.9-11.02 16.7 16.72 46.6 46.54 71.6-71.52-46.6-46.73-16.8-16.62 11-21c6.6-12.92 12.2-26.21 16.4-39.6l7-22.61h89.5v-101.16h-89.6l-7.1-22.51c-4.2-13.49-9.8-26.78-16.5-39.61l-10.9-20.99 16.7-16.72 46.5-46.54-71.5-71.62-46.7 46.73-16.7 16.72-21-10.92c-12.9-6.75-26.2-12.25-39.6-16.53l-22.6-7.03v-89.38h-101.1v89.48l-22.5 7.12c-13.5 4.28-26.8 9.79-39.7 16.53l-20.9 10.92-16.8-16.71-46.5-46.55-71.6 71.62 46.7 46.64 16.6 16.71-10.8 20.9c-6.7 12.92-12.3 26.22-16.5 39.61l-7.1 22.61h-89.3v101.25h89.4l7.2 22.51c4.1 13.4 9.8 26.79 16.5 39.61l10.9 20.9-16.7 16.71-46.5 46.64 71.5 71.52 46.7-46.63 16.7-16.72 20.9 10.92c12.9 6.74 26.2 12.25 39.6 16.44l22.6 7.02v89.48h101.3"
        transform="matrix(1.3333 0 0 -1.3333 0 2666.7) scale(.1) scale(1.0528)"
      ></path>
      <path
        fill="#fff"
        d="M16124 5546c-97.3 0-176.1-78.79-176.1-176.03 0-97.25 78.8-176.04 176.1-176.04 97.2 0 176 78.79 176 176.04 0 97.24-78.8 176.03-176 176.03zm0-32.47c79.1 0 143.5-64.39 143.5-143.56 0-79.09-64.4-143.47-143.5-143.47s-143.5 64.38-143.5 143.47c0 79.17 64.4 143.56 143.5 143.56"
        transform="matrix(1.3333 0 0 -1.3333 0 2666.7) scale(.1) scale(1.0407)"
      ></path>
      <path
        fill="#ff654d"
        d="M16300 13891c0-367.8-298.2-666.1-666.2-666.1-367.8 0-666 298.3-666 666.1 0 367.9 298.2 666.1 666 666.1 368 0 666.2-298.2 666.2-666.1"
        transform="matrix(1.3333 0 0 -1.3333 0 2666.7) scale(.1) scale(1.0733)"
      ></path>
      <path
        fill="#fff"
        d="M16174 14682c-55 0-97.5-42.5-97.5-98.2 0-55.8 42.5-98.7 97.5-98.7 28.7 0 60.2 14.6 83.1 37.4l42.5-46.1c-33.8-34.8-82.7-57.2-129.4-57.2-95.4 0-167.6 70.9-167.6 163.7 0 92.3 73.5 161.7 170.4 161.7 46.1 0 94.6-20.5 126.1-53l-42-51.2c-21.9 25.2-53.5 41.6-83.1 41.6"
        transform="matrix(1.3333 0 0 -1.3333 0 2666.7) scale(.1) scale(1.0212)"
      ></path>
      <path
        fill="#fff"
        d="M16172 14432c-23.8 0-40-8.5-40-25.6 0-57.9 167.5-25.6 167-138.8 0-61.5-53.4-94.7-123-94.7-51.7 0-103.4 19.7-138.8 49.8l28.3 58c32.4-28.8 78.2-47.2 111.4-47.2 29.1 0 46.7 10.8 46.7 30.1 0 59.3-167.5 24.7-167.5 136.1 0 57 48.9 93 121.6 93 44.1 0 88.1-13.5 119.6-34.2l-27.4-58.8c-33.3 19.8-72.8 32.3-97.9 32.3"
        transform="matrix(1.3333 0 0 -1.3333 0 2666.7) scale(.1) scale(1.0389)"
      ></path>
      <path
        fill="#fff"
        d="M16175 14184c-23.4 0-39.3-8.4-39.3-25.2 0-56.9 164.6-25.1 164.1-136.4 0-60.4-52.5-93.1-120.9-93.1-50.8 0-101.5 19.4-136.4 49l27.8 56.9c31.8-28.2 76.9-46.3 109.5-46.3 28.7 0 45.9 10.6 45.9 29.6 0 58.2-164.6 24.3-164.6 133.7 0 56.1 48 91.4 119.5 91.4 43.4 0 86.6-13.3 117.5-33.6l-26.9-57.8c-32.7 19.4-71.5 31.8-96.2 31.8"
        transform="matrix(1.3333 0 0 -1.3333 0 2666.7) scale(.1) scale(1.0572)"
      ></path>
      <path
        fill="#ff654d"
        d="M11696 15612c-4.2-324-270.3-583.3-594.3-579.1-323.9 4.2-583.2 270.3-579 594.3 4.2 323.9 270.3 583.2 594.2 579 324-4.2 583.3-270.2 579.1-594.2"
        transform="matrix(1.3333 0 0 -1.3333 0 2666.7) scale(.1)"
      ></path>
      <path
        fill="#fff"
        d="M10787 15753l49.5-90.5 52.1 89.2 64.9-.8-82.7-139.6 85.8-154.4-65.5.9-56 98.5-57.4-97.1-64.2.8 89 149.2-79.3 144.6 63.8-.8M11053 15750l68.4-180.6 72.8 178.7 61-.8-3.8-293.8-49.3.6 2.6 198.2-66.7-167.5-35.7.4-62.3 169.2-2.6-198.1-49.6.6 3.9 293.9 61.3-.8M11363 15746l-3.1-235.9 104.1-1.3-.8-58-158.8 2.1 3.8 293.9 54.8-.8"
        transform="matrix(1.3333 0 0 -1.3333 0 2666.7) scale(.1)"
      ></path>
      <path
        fill="#9e8fae"
        d="M3436.7 12934c94.27-313.6-83.55-644.3-397.16-738.5-313.61-94.3-644.26 83.5-738.52 397.1-94.27 313.6 83.54 644.3 397.16 738.6 313.61 94.2 644.26-83.6 738.52-397.2"
        transform="matrix(1.3333 0 0 -1.3333 0 2666.7) scale(.1)"
      ></path>
      <path
        fill="#fff"
        d="M2594.6 12782c-17.24-5.2-26.7-16.2-22.2-31.2 15.26-50.7 128.06 14.1 157.57-85.3 16.21-53.9-13.73-94.7-64.14-109.8-37.42-11.3-80.02-5.2-113.65 13.5l5.23 56.9c30.98-18.1 69.01-24.3 93.08-17.1 21.14 6.4 31 19.7 25.91 36.6-15.63 52-127.83-14.8-157.19 82.8-15.02 50 10.95 92.2 63.64 108 31.88 9.6 67.3 7.4 95.52-3.9l-4.34-57.5c-29.28 10.1-61.21 12.5-79.43 7M2881.6 12679c38.05 11.5 57.59 58.6 43.03 107-14.55 48.4-56.58 76.1-94.63 64.7-38.38-11.5-59.14-58.1-44.58-106.6 14.55-48.4 58.12-76.5 96.18-65.1zm159.24-44.8c-11.88-24.2-33.16-43.1-55.28-49.7-30.91-9.3-64.23 6-91.53 39-68.59-18.4-137.63 26.1-161.3 104.8-24.15 80.3 10.67 155.6 80.28 176.6 69.61 20.9 140.28-23.1 164.31-103.1 18.46-61.4 2.27-120.8-37.89-154.7 13.03-10.3 26.12-14.9 37.17-11.6 11.07 3.3 23.22 16 33.5 33.7l30.74-35M3023 12966l66.52-221.2 97.57 29.3 16.34-54.4-148.97-44.7-82.85 275.6 51.39 15.4"
        transform="matrix(1.3333 0 0 -1.3333 0 2666.7) scale(.1)"
      ></path>
      <path
        fill="#9e8fae"
        d="M8436.1 15732c78.19-348.5-140.94-694.4-489.45-772.6-348.5-78.2-694.4 140.9-772.59 489.4-78.18 348.5 140.95 694.4 489.45 772.6 348.51 78.2 694.4-140.9 772.59-489.4"
        transform="matrix(1.3333 0 0 -1.3333 0 2666.7) scale(.1) scale(1.0975)"
      ></path>
      <path
        fill="#fff"
        d="M7860.9 16198c-7.1 30.7-30.29 41.5-64.93 33.5l-51.53-11.9 21.53-93.2 51.54 11.9c34.63 8 50.65 28.2 43.39 59.7zm58.53 15.6c14.81-64.1-16.78-110.4-86.79-126.5l-54.68-12.7 18.19-78.6-62.14-14.4-63.61 275.3 116.81 27c70.03 16.2 118.16-9.1 132.22-70.1"
        transform="matrix(1.3333 0 0 -1.3333 0 2666.7) scale(.1) scale(1.0575)"
      ></path>
      <path
        fill="#fff"
        d="M7962.1 16257l26.4-114.3 124.08 28.7-26.4 114.3 61.88 14.3 63.29-274.1-61.85-14.2-24.98 108-124.09-28.6 24.96-108.1-61.86-14.3-63.29 274.1 61.86 14.2"
        transform="matrix(1.3333 0 0 -1.3333 0 2666.7) scale(.1) scale(1.0625)"
      ></path>
      <path
        fill="#fff"
        d="M8368.6 16199c-7.04 30.4-30.05 41.2-64.4 33.2l-51.11-11.8 21.35-92.4 51.11 11.8c34.36 7.9 50.25 28 43.05 59.2zm58.06 15.5c14.68-63.6-16.64-109.5-86.09-125.5l-54.23-12.5 18.03-78.1-61.63-14.2-63.1 273.1 115.87 26.8c69.44 16 117.19-9.1 131.15-69.6"
        transform="matrix(1.3333 0 0 -1.3333 0 2666.7) scale(.1) scale(1.0662)"
      ></path>
      <path
        fill="#ffcb30"
        d="M16300 10340c0-206.4-167.4-373.83-373.9-373.83-206.4 0-373.8 167.43-373.8 373.83 0 206.5 167.4 373.9 373.8 373.9 206.5 0 373.9-167.4 373.9-373.9"
        transform="matrix(1.3333 0 0 -1.3333 0 2666.7) scale(.1) scale(1.1065)"
      ></path>
      <path
        fill="#fff"
        d="M16230 10640c-30.2-.1-53.4-23.7-53.2-54.4.3-30.7 23.8-54.2 54-54 15.8.1 33.2 8.2 45.7 20.9l23.5-25.3c-18.4-19.2-45.3-31.7-71-31.9-52.6-.3-92.6 38.4-93 89.5-.3 50.9 40 89.4 93.4 89.7 25.4.2 52.2-11 69.7-28.7l-23-28.4c-12.2 13.8-29.7 22.7-46.1 22.6"
        transform="matrix(1.3333 0 0 -1.3333 0 2666.7) scale(.1) scale(1.0793)"
      ></path>
      <path
        fill="#fff"
        d="M16235 10487l-37.8-.3-4.5-37.6 37.8.2zm27.6.1l-4.2-37.6 33.6.2-2.8-27.6-34.1-.2-4.8-39.9-27.6-.2 4.7 39.9-37.8-.2-4.7-39.9-27.8-.2 4.6 39.9-33.8-.2 2.8 27.6 34.3.2 4.3 37.7-33.6-.3 2.8 27.7 34.1.2 5 41.6 27.6.2-5-41.6 37.8.2 5 41.6 27.9.2-4.9-41.6 33.8.2-2.6-27.6-34.6-.3"
        transform="matrix(1.3333 0 0 -1.3333 0 2666.7) scale(.1) scale(1.0914)"
      ></path>
      <path
        fill="#1957c2"
        d="M4392.3 6517.2c0-351.8-285.15-636.9-636.89-636.9-351.75 0-636.89 285.1-636.89 636.9 0 351.7 285.14 636.9 636.89 636.9 351.74 0 636.89-285.2 636.89-636.9"
        transform="matrix(1.3333 0 0 -1.3333 0 2666.7) scale(.1)"
      ></path>
      <path
        fill="#fff"
        d="M3621.4 6632.6c-55.34-.3-97.97-43.5-97.62-99.8.38-56.2 43.55-99.3 98.88-99 29.08.2 60.81 15.2 83.75 38.4l43.17-46.3c-33.91-35.3-83.13-58.2-130.17-58.5-96.42-.7-169.74 70.4-170.34 164-.6 93.2 73.23 163.8 171.04 164.4 46.6.3 95.63-20.1 127.64-52.7l-42.1-51.9c-22.31 25.2-54.25 41.6-84.25 41.4M3964.4 6567.5l-70.07-.5-8.33-69.7 70.08.4zm51.24.3l-7.88-69.8 62.26.5-5.16-51.3-63.22-.4-8.78-73.9-51.21-.3 8.76 73.9-70.07-.4-8.8-73.9-51.64-.4 8.76 73.9-62.77-.4 5.23 51.3 63.65.4 7.88 69.7-62.27-.4 5.2 51.2 63.21.4 9.17 77.1 51.24.4-9.21-77.1 70.08.4 9.2 77.1 51.68.3-9.2-77.1 62.77.4-4.79-51.2-64.09-.4"
        transform="matrix(1.3333 0 0 -1.3333 0 2666.7) scale(.1)"
      ></path>
      <path
        fill="#9e8fae"
        d="M15643 11142c-362.7 0-656.7-294-656.7-656.7 0-362.6 294-656.7 656.7-656.7s656.7 294.1 656.7 656.7c0 362.7-294 656.7-656.7 656.7"
        transform="matrix(1.3333 0 0 -1.3333 0 2666.7) scale(.1) scale(1.0055)"
      ></path>
      <path
        fill="#fff"
        d="M15495 10611c-57 0-101.2-44.3-101.2-102.2 0-58 44.2-102.6 101.2-102.6 29.9 0 62.7 15.2 86.5 38.9l44.2-48c-35.2-36-86-59.3-134.5-59.3-99.3 0-174.3 73.6-174.3 170.1 0 95.9 76.4 168.1 177.2 168.1 47.9 0 98.3-21.3 131.1-55.1l-43.7-53.2c-22.8 26.2-55.6 43.3-86.5 43.3M15858 10472h-81.3v-80.2h-46.5v80.2h-81.3v48.5h81.3v80.8h46.5v-80.8h81.3v-48.5M16098 10472h-81.2v-80.2h-46.6v80.2h-81.2v48.5h81.2v80.8h46.6v-80.8h81.2v-48.5"
        transform="matrix(1.3333 0 0 -1.3333 0 2666.7) scale(.1)"
      ></path>
      <path
        fill="#9e8fae"
        d="M5860.2 16280c-30.53 2.6-60.59 4.4-89.32 5.4l.51 15c28.99-1 59.3-2.8 90.09-5.5zm-297.4-3.1l-1.92 14.8c28.95 3.7 59.25 6.4 90.08 8l.76-15c-30.45-1.5-60.37-4.2-88.92-7.8zm504.7-24.1c-32.33 5.3-61.34 9.8-88.65 13.6l2.07 14.8c27.44-3.8 56.56-8.3 89-13.6zm-706.28-25l-5.31 14c27.63 10.4 56.7 19.6 86.43 27.3l3.74-14.5c-29.19-7.5-57.75-16.6-84.86-26.8zm912.82-10.9c-25.86 4.5-51.71 9-77.56 13.6l-10.99 2 2.62 14.7 10.98-1.9c25.83-4.6 51.66-9.2 77.5-13.6zm207.81-31c-28.18 3.3-57.4 7.1-89.33 11.8l2.18 14.8c31.76-4.6 60.83-8.5 88.86-11.7zm196.99-12.1c-24.93 0-50.88.7-77.15 2l.78 15c25.99-1.4 51.69-2 76.37-2h13l.15-15zm-1497.1-47.7l-9.51 11.6c23.67 19.5 48.73 37 74.49 52.2l7.6-12.9c-25.1-14.8-49.51-31.9-72.58-50.9zm-380.43-105.4l-2.55 14.8c21.99 3.7 44.36 7.2 66.51 10.3 7.57 1 15.17 2.1 22.79 3l1.89-14.8c-7.57-1-15.11-2-22.62-3-21.99-3.1-44.21-6.6-66.02-10.3zm500.64-9.7c-27.12 9-56.07 16.3-86.03 21.8l2.69 14.7c30.64-5.6 60.26-13.1 88.06-22.3zm-704.67-35.6l-3.95 14.4c28.98 8 58.42 15.4 87.49 22l3.36-14.6c-28.88-6.6-58.13-13.9-86.9-21.8zm450.04-5.5l-12.88 7.6c13.96 23.5 29.78 46.3 47.07 68.1-23.67.4-47.76 0-72.84-1.1l-.68 15c31.29 1.4 60.97 1.6 90.45.6l-.52-15c-.99 0-1.99.1-2.98.1l3.34-2.7c-18.86-23-36.01-47.5-50.96-72.6zm-648.77-59l-5.28 14c27.99 10.6 56.59 20.7 84.98 30.1l4.72-14.2c-28.22-9.4-56.62-19.4-84.42-29.9zm1080.4-2.4c-20.88 20.1-43.51 37.7-67.25 52.1l-2.47 1.5 7.67 12.9 2.6-1.6c24.67-15 48.17-33.3 69.85-54.1zm-1272.4-80l-6.51 13.5c27 13 54.55 25.7 81.86 37.7l6-13.8c-27.14-11.8-54.5-24.4-81.35-37.4zm771.79-52l-14.85 1.9c3.83 29.5 10.71 59.4 20.4 88.9l14.23-4.7c-9.4-28.6-16.06-57.5-19.78-86.1zm608.9-40.9c-8.78 27.5-20.87 54.6-35.9 80.4l12.96 7.6c15.57-26.8 28.09-54.9 37.21-83.4zm-1564.6-6.2l-7.67 12.8c25.66 15.3 51.97 30.4 78.23 44.8l7.19-13.2c-26.08-14.3-52.24-29.2-77.75-44.4zm-174.72-114.6l-8.74 12.2c24.4 17.5 49.34 34.7 74.13 51.2l8.29-12.5c-24.64-16.3-49.44-33.5-73.68-50.9zm1142-45.9c-1.54 3.6-3.02 7.2-4.4 10.9-9.47 24.8-16.4 50.8-20.64 77.1l14.79 2.4c4.08-25.4 10.76-50.3 19.85-74.2 1.32-3.5 2.72-6.9 4.18-10.3zm611.48-39.4l-14.05 5.2c9.93 26.8 15.51 55.6 16.6 85.5l14.97-.5c-1.15-31.6-7.03-61.9-17.52-90.2zm-1918-43.5l-9.72 11.4c22.75 19.4 46.17 38.6 69.62 57.2l9.3-11.7c-23.31-18.5-46.6-37.6-69.2-56.9zm1448.7-72.8c-26.96 15.8-51.45 34.4-72.78 55.4l10.51 10.7c20.45-20.1 43.95-38 69.85-53.2zm323.58-34.2l-5.58 13.9c27.75 11.2 52.5 26.6 73.59 45.8l10.1-11c-22.41-20.5-48.69-36.9-78.11-48.7zm-119.94-22.1c-29.97.1-60.51 3.7-90.77 11l3.48 14.5c29.13-6.9 58.49-10.5 87.31-10.5zm-1805.8-12.8l-10.63 10.6c21.08 21.1 42.86 42.2 64.73 62.7l10.23-11c-21.74-20.3-43.38-41.3-64.33-62.3zm-141.39-154l-11.43 9.6c19.33 22.9 39.31 45.7 59.39 67.9l11.09-10.1c-19.95-22-39.82-44.7-59.05-67.4zm-128.34-165.1l-12.19 8.7c17.45 24.5 35.49 48.8 53.65 72.5l11.89-9.1c-18.06-23.6-36.01-47.8-53.35-72.1zm-114.28-175.1l-12.88 7.7c15.32 25.7 31.29 51.5 47.48 76.6l12.59-8.1c-16.08-24.9-31.96-50.6-47.19-76.2zm-99.14-184.1l-13.48 6.6c13.02 26.8 26.75 53.9 40.81 80.4l13.23-7c-13.98-26.4-27.62-53.3-40.56-80zm-82.84-191.9l-14.01 5.4c10.64 28 21.96 56.1 33.65 83.6l13.78-5.8c-11.6-27.4-22.86-55.3-33.42-83.2zm-65.37-198.4l-14.42 4.1c7.98 28.6 16.72 57.6 25.96 86.3l14.26-4.6c-9.19-28.5-17.86-57.4-25.8-85.8zm-46.75-203.4l-14.74 2.6c5.29 29.4 11.29 59.1 17.8 88.3l14.61-3.2c-6.47-29.1-12.41-58.6-17.67-87.7zm-27.07-207l-14.93 1.2c2.43 29.8 5.53 60 9.2 89.7l14.87-1.8c-3.66-29.5-6.73-59.5-9.14-89.1"
        transform="matrix(1.3333 0 0 -1.3333 0 2666.7) scale(.1) scale(1.0959)"
      ></path>
      <path
        fill="#9e8fae"
        d="M13958 16280l-1.5 15.6c28 2.7 56.6 4.1 85.1 4.1l9.7-.1-.2-15.6h-9.5c-28 0-56.1-1.3-83.6-4zm308.2-24.6c-30.1 7.7-60.9 13.9-91.3 18.5l2.4 15.5c30.9-4.6 62.2-11 92.8-18.8zm203.3-76.5c-27.7 14-56.3 26.9-85.1 38.2l5.9 14.6c29.1-11.5 58.1-24.6 86.3-38.9zm182.4-118.4c-24.1 19.5-49.4 38.2-75.1 55.5l8.7 13c26.2-17.5 51.9-36.5 76.2-56.3zm152.6-154.5c-19 24.2-39.7 47.8-61.2 70.3l11.3 10.8c21.9-22.8 42.8-46.8 62.3-71.4zm113.8-184.8c-12.8 27.9-27.4 55.6-43.3 82.4l13.5 8c16.2-27.3 31-55.5 44.1-83.9zm65-206.9c-5.6 30.6-12.7 61.1-21.4 90.7l15.1 4.4c8.8-30.1 16.1-61.2 21.7-92.3zm28.3-217.6l-15.6.9c1 18.2 1.6 36.6 1.6 54.8 0 12.8-.3 25.6-.8 38.4l15.7.7c.5-13 .8-26.1.8-39.1 0-18.5-.6-37.2-1.7-55.7zm-36.8-217.6l-15.1 4.3c8.5 29.9 15.7 60.5 21.3 90.8l15.4-2.9c-5.7-30.7-13-61.8-21.6-92.2zm-82.4-204.7l-13.8 7.4c14.6 27.2 28 55.6 40 84.2l14.5-6c-12.3-29.2-25.9-57.9-40.7-85.6zm-124.4-182.3l-11.9 10.2c20.1 23.4 39.4 48.1 57.3 73.5l12.9-9c-18.2-25.8-37.9-51-58.3-74.7zm-162.7-149.1l-9.1 12.7c25 17.9 49.5 37.4 72.8 58.1l10.4-11.8c-23.7-21-48.6-40.9-74.1-59"
        transform="matrix(1.3333 0 0 -1.3333 0 2666.7) scale(.1) scale(1.0474)"
      ></path>
      <path
        fill="#9e8fae"
        d="M14593 11989l-12.4 7c14.2 25 30.9 48.9 49.7 71l10.8-9.2c-18.2-21.4-34.3-44.6-48.1-68.8zm-59-186.1l-14.1 1.5c3.2 29.2 8.7 57.8 16.4 85l13.7-3.8c-7.5-26.5-12.8-54.3-16-82.7zm-3.3-199c-5.9 28.6-9.9 57.4-12.3 85.4l14.2 1.2c2.3-27.5 6.3-55.7 12.1-83.7zm65.2-189.8c-12.6 25.9-23.9 52.6-33.7 79.3l13.5 4.9c9.5-26.3 20.6-52.5 33-78zm107.5-169.5c-17.9 22.1-35 45.5-50.8 69.6l11.9 7.8c15.5-23.7 32.4-46.7 50-68.5zm143.2-140.5c-22.6 18.2-44.4 37.2-64.9 56.4l9.7 10.4c20.3-19 41.9-37.7 64.2-55.7zm164.4-114.3c-25 15.1-49.4 30.7-72.2 46.3l8 11.8c22.6-15.5 46.7-30.9 71.6-46zm175.5-95.9c-27.3 13.6-52.2 26.5-76.1 39.3l6.7 12.6c23.9-12.8 48.6-25.6 75.7-39.1zm180.4-85.5c-25.9 11.9-51.8 23.9-77.6 36l6 12.9c25.8-12.1 51.7-24 77.5-35.9zm181-83.7c-25.7 12.2-51.5 24.2-77.4 36.2l6 12.9c25.9-11.9 51.8-24 77.5-36.3zm176.9-90.9c-24.2 13.8-49.5 27.4-74.9 40.5l6.5 12.7c25.6-13.2 51.1-26.9 75.4-40.8zm166.9-107.6c-22.2 16.4-45.8 32.7-69.9 48.5l7.8 11.9c24.4-16 48.1-32.4 70.5-48.9zm151.3-128.3c-19.5 19.5-40.5 38.9-62.4 57.8l9.3 10.8c22.1-19.1 43.4-38.8 63.2-58.5zm126-152.4c-15.1 23-32 46-50.1 68.5l11.1 8.9c18.4-22.8 35.5-46.2 50.9-69.5zm86-177c-8.4 26.4-18.9 52.8-30.8 78.6l12.8 6c12.3-26.3 22.9-53.3 31.6-80.2zm31-193.92c0 27.98-1.9 55.77-5.7 83.09l14 3.16.2-1.19c3.8-28 5.7-56.44 5.7-84.57zm-17.4-198.26l-13.5 4.34c8.6 27.02 15.5 54.59 20.5 81.91l14.1-2.57c-5.1-27.92-12.2-56.08-21.1-83.68zm-86.1-181.17l-12 7.69c15.4 24.06 29.5 48.8 41.9 73.52l12.7-6.38c-12.6-25.17-26.9-50.34-42.6-74.83zm-126.4-155.73l-10 10.09c20.2 20.09 39.4 41.1 57.4 62.44l10.9-9.16c-18.2-21.66-37.8-42.98-58.3-63.37zm-155.1-127.05l-7.9 11.84c23.4 15.72 46.5 32.58 68.5 50.08l8.9-11.14c-22.4-17.75-45.7-34.84-69.5-50.78zm-176.4-95.51l-5.6 13.13c26 10.95 51.7 23.17 76.8 36.31l6.6-12.61c-25.4-13.32-51.5-25.72-77.8-36.83zm-1099.8-42.67c-28.2 4.73-56.2 9.61-84.3 14.59l2.5 14.03c27.9-4.96 56-9.85 84.2-14.56zm908.5-17.55l-3.1 13.91c27.8 6.25 55.5 13.44 82.3 21.35l4-13.67c-27.1-8-55.1-15.25-83.2-21.59zm-711-12.18c-28.3 3.66-56.5 7.61-84.8 11.81l2.1 14.1c28.2-4.2 56.3-8.14 84.5-11.79zm513.1-18.28l-1.3 14.2c28.6 2.51 57.1 5.78 84.6 9.72l2-14.09c-27.8-3.98-56.5-7.28-85.3-9.83zm-314.3-1.58c-27.6 1.84-56.4 4.19-85.4 6.97l1.4 14.19c28.8-2.78 57.4-5.12 85-6.95zm152.9-5.26c-12.9 0-25.7.12-38.6.36l.2 14.24c28.5-.51 56.9-.47 85.2.2l.3-14.24c-15.7-.37-31.4-.55-47.1-.56"
        transform="matrix(1.3333 0 0 -1.3333 0 2666.7) scale(.1) scale(1.1521)"
      ></path>
      <path
        fill="#9e8fae"
        d="M2632.7 9704c-14.83 29.5-28.73 59.8-41.34 90l15.15 6.3c12.46-29.9 26.2-59.8 40.85-88.9zm120.05-197.2c-19.31 26.7-37.92 54.3-55.31 82.2l13.92 8.7c17.2-27.6 35.6-54.9 54.69-81.2zm149.3-176c-23.21 23.5-45.84 47.9-67.27 72.6l12.4 10.8c21.19-24.5 43.59-48.6 66.56-71.9zm174.09-151.6c-26.31 19.7-52.35 40.5-77.37 61.8l10.64 12.5c24.77-21.1 50.52-41.7 76.57-61.1zm194.74-123.9c-28.92 15.5-57.76 32.1-85.72 49.5l8.66 13.9c27.67-17.2 56.2-33.6 84.81-49zm211.24-93.1c-30.81 10.8-61.85 22.9-92.27 35.9l6.44 15.1c30.1-12.9 60.81-24.8 91.27-35.5zm223.31-58.7c-32.17 5.7-64.75 12.7-96.86 20.7l4 16c31.73-8 63.93-14.9 95.7-20.5l-2.84-16.2"
        transform="matrix(1.3333 0 0 -1.3333 0 2666.7) scale(.1)"
      ></path>
      <path
        fill="#9e8fae"
        d="M9508.4 16277l-1.86 15.1c31.37 3.9 62.27 6.6 91.88 8l.74-15.3c-29.23-1.3-59.76-4-90.76-7.8zm301.87-6.3c-29.13 5.6-59.38 9.7-90.01 12.2l1.21 15.3c31.19-2.6 62-6.8 91.69-12.5zm-510.87-34.2l-3.7 14.8c31.75 8 61.07 14.7 89.64 20.6l3.08-15c-28.39-5.8-57.44-12.5-89.02-20.4zm709.65-35.7c-25.92 14.2-53.66 26.9-82.42 37.6l5.4 14.3c29.41-11 57.8-23.9 84.32-38.5zm-915.44-21.5l-4.29 14.6c29.3 8.6 58.67 17.2 88.11 25.6l4.18-14.7c-29.4-8.4-58.73-17-88-25.5zm1075-113.6c-18.4 24.2-39 46.4-61.2 66.2l10.2 11.4c22.9-20.4 44.2-43.4 63.2-68.3zm87-189.7c-5.8 29-14.8 57.9-26.7 86l14.1 6c12.3-29.1 21.6-59 27.5-88.9zm263.6-152.3c-29.8 3.7-60.4 5.9-90.6 6.5l.4 15.3c30.7-.6 61.8-2.9 92.1-6.7zm205-51.7c-28.6 11.2-57.2 20.6-86.1 28.4l3.9 14.7c29.5-7.9 58.7-17.5 86.7-28.4l-1.6-7.6zm-470.1-7.7l-14.1 5.7c.7 2 1.6 4 2.3 6.1 4.9 13.2 9 26.7 12.1 40.6-12.2-2.2-24.3-4.7-36.3-7.4l-3.3 15c14.1 3.1 28.5 6 43 8.5 1.5 7.9 2.6 15.9 3.5 24l15.2-1.7c-.8-6.6-1.7-13.2-2.7-19.7 10.7 1.6 21.4 3.1 32.1 4.3l1.8-15.1c-12.3-1.5-24.7-3.2-37-5.1-3.5-16.7-8.3-33-14-48.7-.9-2.2-1.7-4.3-2.6-6.5zm-234.3-27.7l-7.2 13.5c26.9 14.3 55.3 27.2 84.2 38.4l5.5-14.3c-28.4-11-56.1-23.6-82.5-37.6zm891.8-63.4c-25.2 17-51.3 33-77.6 47.4l7.4 13.4c26.6-14.7 53.2-30.9 78.8-48.2zm-1061.5-61.6l-10.89 10.8c21.6 21.7 44.96 42.3 69.63 61.2l9.31-12.1a676.339 676.339 0 01-68.05-59.9zm262.64-9.2l-7.9 13.1c25.9 15.4 49.6 34.1 70.2 55.4l11-10.6c-21.6-22.3-46.3-41.8-73.3-57.9zm-169.18-48.7c-13.87 0-27.55 1-40.86 3l2.23 15.1c28.39-4.2 58.74-3.7 88.8 1.7l2.7-15.1c-17.68-3.1-35.46-4.7-52.87-4.7zm1130.8-16.5c-21.4 21.7-43.7 42.6-66.5 62.2l10 11.6c23-19.9 45.7-41.1 67.4-63.1zm134.5-164.2c-17.1 25.1-35.3 49.8-54.1 73.3l11.9 9.5c19.1-23.8 37.6-48.8 54.9-74.1zm104.8-184.8c-12.6 27.4-26.5 54.8-41.1 81.3l13.4 7.4c14.8-26.8 28.8-54.5 41.6-82.3zm73.6-199.4c-8 28.2-17 56.4-26.6 83.7l-1.2 3.3 14.5 5 1.1-3.2c9.7-27.7 18.8-56.1 26.9-84.6zm43.8-208.1c-4.3 30.3-9.5 60.5-15.4 89.9l15 3c6-29.6 11.2-60.2 15.6-90.8zm17.5-212.2c-.8 30.8-2.3 61.4-4.5 91.2l15.3 1.1c2.1-30 3.6-60.9 4.5-91.9zm9.7-214.1l-15.3 1.1c2.3 30.7 4 61.4 5 91.3l15.2-.6c-1-30-2.7-60.9-4.9-91.8zm-25.3-213l-15.1 2.4c4.8 30.1 9.2 60.6 12.9 90.5l15.2-1.9c-3.7-30.1-8.2-60.7-13-91"
        transform="matrix(1.3333 0 0 -1.3333 0 2666.7) scale(.1) scale(1.0743)"
      ></path>
    </svg>