<?xml version="1.0" encoding="UTF-8"?>
<svg data-name="Layer 1" viewBox="0 0 753.87 703.83" xmlns="http://www.w3.org/2000/svg">
<path transform="translate(-223.06 -98.086)" d="m578.48 103.96-330.35 180.24a48.179 48.179 0 0 0-19.196 65.296l211.64 387.89a48.179 48.179 0 0 0 65.296 19.196l0.05958-0.03251 330.29-180.21a48.179 48.179 0 0 0 19.196-65.296l-211.64-387.89a48.179 48.179 0 0 0-65.296-19.196z" fill="#cfd8dc"/>
<path transform="translate(-223.06 -98.086)" d="m585.11 116.12-330.35 180.24a34.309 34.309 0 0 0-13.67 46.499l211.64 387.89a34.309 34.309 0 0 0 46.499 13.67l0.05958-0.0325 330.29-180.21a34.309 34.309 0 0 0 13.669-46.499l-211.64-387.89a34.309 34.309 0 0 0-46.498-13.67z" fill="#fff"/>
<path transform="translate(-223.06 -98.086)" d="m589.67 236.52-123.16 67.2a8.0141 8.0141 0 1 1-7.677-14.07l123.16-67.2a8.0141 8.0141 0 1 1 7.677 14.07z" fill="#cfd8dc"/>
<path transform="translate(-223.06 -98.086)" d="m631.64 244.43-152.18 83.033a8.0141 8.0141 0 0 1-7.677-14.07l152.18-83.033a8.0141 8.0141 0 1 1 7.677 14.07z" fill="#cfd8dc"/>
<path transform="translate(-223.06 -98.086)" d="m415.87 275.75-113.55 61.954a3.8408 3.8408 0 0 0-1.5315 5.2101l48.352 88.617a3.8408 3.8408 0 0 0 5.21 1.5317l113.55-61.954a3.8408 3.8408 0 0 0 1.5315-5.21l-48.352-88.617a3.8408 3.8408 0 0 0-5.21-1.5318z" fill="#cfd8dc"/>
<path transform="translate(-223.06 -98.086)" d="m650.78 348.96-167.05 91.148a8.0141 8.0141 0 1 1-7.677-14.07l167.05-91.148a8.0141 8.0141 0 1 1 7.677 14.07z" fill="#cfd8dc"/>
<path transform="translate(-223.06 -98.086)" d="m692.75 356.87-196.07 106.98a8.0141 8.0141 0 0 1-7.677-14.07l196.07-106.98a8.0141 8.0141 0 1 1 7.677 14.07z" fill="#cfd8dc"/>
<circle cx="197.04" cy="382.67" r="34" fill="#cfd8dc"/>
<path transform="translate(-223.06 -98.086)" d="m928.81 263.79h-376.32a48.179 48.179 0 0 0-48.125 48.125v441.88a48.179 48.179 0 0 0 48.125 48.125h376.32a48.179 48.179 0 0 0 48.125-48.125v-441.88a48.179 48.179 0 0 0-48.125-48.125z" fill="#cfd8dc"/>
<path transform="translate(-223.06 -98.086)" d="m928.81 277.64h-376.32a34.309 34.309 0 0 0-34.271 34.271v441.88a34.309 34.309 0 0 0 34.271 34.271h376.32a34.309 34.309 0 0 0 34.271-34.271v-441.88a34.309 34.309 0 0 0-34.271-34.271z" fill="#fff"/>
<path transform="translate(-223.06 -98.086)" d="m875.14 385.52h-140.3a8.0141 8.0141 0 0 1 0-16.028h140.3a8.0141 8.0141 0 1 1 0 16.028z" fill="#3db2ff"/>
<path transform="translate(-223.06 -98.086)" d="m908.2 412.57h-173.36a8.0141 8.0141 0 1 1 0-16.028h173.36a8.0141 8.0141 0 0 1 0 16.028z" fill="#3db2ff"/>
<path transform="translate(-223.06 -98.086)" d="m703.79 336.71h-129.35a3.8408 3.8408 0 0 0-3.8398 3.84v100.95a3.8408 3.8408 0 0 0 3.8398 3.84h129.35a3.8408 3.8408 0 0 0 3.8398-3.84v-100.95a3.8408 3.8408 0 0 0-3.8398-3.84z" fill="#cfd8dc"/>
<path transform="translate(-223.06 -98.086)" d="m609.92 398.7a34.087 34.087 0 0 1-8.804 23.076c-5.656 6.2071-14.076 10.324-22.573 8.6204-7.8242-1.5683-14.182-8.4067-13.389-16.68a12.356 12.356 0 0 1 15.267-11.095c7.4326 1.9288 10.394 12.641 4.2005 17.669-1.4862 1.2065-3.6214-0.90359-2.1213-2.1213 4.0944-3.3238 2.8295-10.595-2.1124-12.419-5.7537-2.1231-11.85 2.4432-12.264 8.3255-0.49057 6.9743 4.8522 12.226 11.404 13.463 7.0879 1.3377 14.115-2.29 18.918-7.2972a30.955 30.955 0 0 0 8.474-21.542 1.5009 1.5009 0 0 1 3 0z" fill="#2f2e41"/>
<circle cx="416.16" cy="266.17" r="53.519" fill="#3db2ff"/>
<path transform="translate(-223.06 -98.086)" d="m636.48 387.09-0.05566-2c3.7207-0.10352 7.001-0.33692 9.4658-2.1377a6.1479 6.1479 0 0 0 2.3813-4.5283 3.5143 3.5143 0 0 0-1.1528-2.8945c-1.6362-1.3818-4.269-0.93457-6.188-0.05469l-1.6548 0.75879 3.1733-23.19 1.9814 0.27149-2.6992 19.727c2.6074-0.7666 5.0234-0.43652 6.6782 0.96094a5.471 5.471 0 0 1 1.8604 4.4922 8.1326 8.1326 0 0 1-3.2002 6.0732c-3.167 2.3144-7.2827 2.4297-10.59 2.5225z" fill="#2f2e41"/>
<rect x="431.17" y="256.93" width="10.771" height="2" fill="#2f2e41"/>
<rect x="397.17" y="256.93" width="10.771" height="2" fill="#2f2e41"/>
<path transform="translate(-223.06 -98.086)" d="m609.57 445.34a53.006 53.006 0 0 1 12.89-5.93 8.5679 8.5679 0 0 1 0.02-4.71 9.4261 9.4261 0 0 1 9.1299-6.63h13.04a9.4596 9.4596 0 0 1 9.1504 6.64 8.532 8.532 0 0 1 0.01953 4.7 53.167 53.167 0 0 1 12.89 5.93z" fill="#2f2e41"/>
<path transform="translate(-223.06 -98.086)" d="m700.52 344.39a11.571 11.571 0 0 0-3.5298-2.87 8.3674 8.3674 0 0 0-3.8501-0.95 8.7716 8.7716 0 0 0-5.1099 1.72c-4.0703 2.88-6.8901 9.09-6.8901 16.28 0 9.02 4.44 16.5 10.21 17.8a8.2532 8.2532 0 0 0 1.79 0.2c6.6099 0 12-8.07 12-18 0-5.76-1.81-10.89-4.6201-14.18z" fill="#3f3d56"/>
<path transform="translate(-223.06 -98.086)" d="m590.6 341.86h-0.00977a8.5784 8.5784 0 0 0-4.4502-1.29 8.3674 8.3674 0 0 0-3.8501 0.95 11.571 11.571 0 0 0-3.5298 2.87l-0.01025 0.01c-2.7998 3.29-4.6099 8.42-4.6099 14.17 0 7.76 3.2798 14.38 7.8799 16.91a8.5418 8.5418 0 0 0 4.1201 1.09 7.7243 7.7243 0 0 0 0.96-0.06h0.00976c6.1602-0.74 11.03-8.5 11.03-17.94-3e-5 -7.56-3.1299-14.05-7.5401-16.71z" fill="#3f3d56"/>
<path transform="translate(-223.06 -98.086)" d="m582.77 373.76a1.5013 1.5013 0 0 0 1.4215-1.98 58.499 58.499 0 1 1 112.69-6.5747 1.5001 1.5001 0 0 0 2.9355 0.61914 61.501 61.501 0 1 0-118.47 6.9146 1.5008 1.5008 0 0 0 1.4213 1.021z" fill="#3f3d56"/>
<path transform="translate(-223.06 -98.086)" d="m666.1 329.58c2.1192 2.8928 1.0745 6.7912-1.1584 9.2853-2.9055 3.2454-7.5388 3.4502-11.562 2.8478-4.5143-0.67591-9.3026-2.7909-13.873-1.3656-3.8954 1.2148-6.6742 4.7479-10.721 5.6354-3.589 0.787-7.8808-0.25477-9.139-4.0802-0.60459-1.8382 2.2914-2.6261 2.8928-0.79751 0.81395 2.4748 4.3286 2.4254 6.3414 1.7401 3.2269-1.0987 5.7137-3.771 8.8854-5.0475 3.7393-1.5049 7.7962-0.82549 11.603 0.03181 3.5883 0.808 7.718 2.006 11.293 0.49665 2.6452-1.1169 4.7498-4.635 2.8472-7.2321-1.1422-1.5591 1.4598-3.0574 2.5904-1.5142z" fill="#2f2e41"/>
<path transform="translate(-223.06 -98.086)" d="m874.93 513.49h-190.3a8.0141 8.0141 0 1 1 0-16.028h190.3a8.0141 8.0141 0 0 1 0 16.028z" fill="#cfd8dc"/>
<path transform="translate(-223.06 -98.086)" d="m907.99 540.54h-223.36a8.0141 8.0141 0 1 1 0-16.028h223.36a8.0141 8.0141 0 1 1 0 16.028z" fill="#cfd8dc"/>
<path transform="translate(-223.06 -98.086)" d="m874.93 610.7h-190.3a8.0141 8.0141 0 1 1 0-16.028h190.3a8.0141 8.0141 0 1 1 0 16.028z" fill="#cfd8dc"/>
<path transform="translate(-223.06 -98.086)" d="m907.99 637.75h-223.36a8.0141 8.0141 0 1 1 0-16.028h223.36a8.0141 8.0141 0 1 1 0 16.028z" fill="#cfd8dc"/>
<circle cx="386.25" cy="420.61" r="34" fill="#cfd8dc"/>
<circle cx="386.25" cy="518.61" r="34" fill="#cfd8dc"/>
<path transform="translate(-223.06 -98.086)" d="m874.93 708.7h-190.3a8.0141 8.0141 0 1 1 0-16.028h190.3a8.0141 8.0141 0 1 1 0 16.028z" fill="#cfd8dc"/>
<path transform="translate(-223.06 -98.086)" d="m907.99 735.75h-223.36a8.0141 8.0141 0 1 1 0-16.028h223.36a8.0141 8.0141 0 1 1 0 16.028z" fill="#cfd8dc"/>
<circle cx="386.25" cy="616.61" r="34" fill="#cfd8dc"/>
</svg>
