<?xml version="1.0" encoding="UTF-8"?>
<svg preserveAspectRatio="xMidYMid" version="1.1" viewBox="0 0 256 256" xmlns="http://www.w3.org/2000/svg">
<path d="m0 222.99c0 18.232 14.779 33.009 33.009 33.009h189.98c18.232 0 33.009-14.779 33.009-33.009v-189.98c0-18.232-14.779-33.009-33.009-33.009h-189.98c-18.232 0-33.009 14.779-33.009 33.009v189.98z" fill="#563D7C"/>
<path d="m106.16 113.24v-36.254h31.912c3.0392 0 5.9699 0.25327 8.792 0.7598 2.8221 0.50654 5.3186 1.4111 7.4895 2.7136 2.1709 1.3025 3.9076 3.1116 5.2101 5.4272 1.3025 2.3156 1.9538 5.2824 1.9538 8.9006 0 6.5126-1.9538 11.216-5.8613 14.111-3.9076 2.8945-8.9005 4.3417-14.979 4.3417h-34.517zm-34.083-62.738v155h75.112c6.9468 0 13.713-0.86834 20.298-2.605s12.446-4.4141 17.584-8.0322c5.1377-3.6181 9.2262-8.2855 12.265-14.002 3.0392-5.7166 4.5588-12.482 4.5588-20.298 0-9.6966-2.3518-17.982-7.0553-24.856-4.7036-6.8745-11.831-11.686-21.383-14.436 6.9468-3.3287 12.193-7.598 15.739-12.808 3.5458-5.2101 5.3186-11.723 5.3186-19.538 0-7.2363-1.194-13.315-3.5819-18.235-2.388-4.9207-5.7528-8.8644-10.095-11.831-4.3418-2.9669-9.5518-5.1015-15.63-6.4041s-12.808-1.9538-20.189-1.9538h-72.941zm34.083 128.52v-42.549h37.122c7.381 0 13.315 1.7005 17.801 5.1015 4.4865 3.401 6.7297 9.0814 6.7297 17.041 0 4.0523-0.68744 7.3809-2.0623 9.986s-3.2201 4.6674-5.5357 6.187c-2.3156 1.5196-4.993 2.605-8.0322 3.2563-3.0392 0.65126-6.2231 0.97689-9.5518 0.97689h-36.471z" fill="#fff"/>
</svg>
