<?xml version="1.0" encoding="UTF-8"?>
<svg viewBox="0 0 48 48" xmlns="http://www.w3.org/2000/svg">
<path d="m22.903 3.286c0.679-0.381 1.515-0.381 2.193 0 3.355 1.883 13.451 7.551 16.807 9.434 0.679 0.38 1.097 1.084 1.097 1.846v18.867c0 0.762-0.418 1.466-1.097 1.847-3.355 1.883-13.451 7.551-16.807 9.434-0.679 0.381-1.515 0.381-2.193 0-3.355-1.883-13.451-7.551-16.807-9.434-0.678-0.381-1.096-1.084-1.096-1.846v-18.867c0-0.762 0.418-1.466 1.097-1.847 3.354-1.883 13.452-7.551 16.806-9.434z" clip-rule="evenodd" fill="#283593" fill-rule="evenodd"/>
<path d="m5.304 34.404c-0.266-0.356-0.304-0.694-0.304-1.149v-18.759c0-0.758 0.417-1.458 1.094-1.836 3.343-1.872 13.405-7.507 16.748-9.38 0.677-0.379 1.594-0.371 2.271 8e-3 3.343 1.872 13.371 7.459 16.714 9.331 0.27 0.152 0.476 0.335 0.66 0.576l-37.183 21.209z" clip-rule="evenodd" fill="#5c6bc0" fill-rule="evenodd"/>
<path d="m24 10c7.727 0 14 6.273 14 14s-6.273 14-14 14-14-6.273-14-14 6.273-14 14-14zm0 7c3.863 0 7 3.136 7 7 0 3.863-3.137 7-7 7s-7-3.137-7-7c0-3.864 3.136-7 7-7z" clip-rule="evenodd" fill="#fff" fill-rule="evenodd"/>
<path d="m42.485 13.205c0.516 0.483 0.506 1.211 0.506 1.784 0 3.795-0.032 14.589 9e-3 18.384 4e-3 0.396-0.127 0.813-0.323 1.127l-19.084-10.5 18.892-10.795z" clip-rule="evenodd" fill="#3949ab" fill-rule="evenodd"/>
</svg>
