<svg
      xmlns="http://www.w3.org/2000/svg"
      width="70"
      height="70"
      viewBox="-8.78 0 70 70"
    >
      <path
        fill="#00bcf2"
        d="M22.06 69.92c-6.552-.472-13.029-2.122-17-4.33-2.262-1.257-3.986-2.803-4.662-4.18l-.403-.82V9.174l.319-.646c1.423-2.89 5.964-5.494 12.304-7.057C14.77.941 17.876.413 20.41.146c2.588-.272 9.447-.23 12.029.073 6.861.806 12.7 2.611 16.298 5.038 1.387.936 2.811 2.433 3.294 3.464l.413.884-.035 25.63-.036 25.63-.332.674c-.182.371-.734 1.101-1.225 1.622-2.992 3.171-9.41 5.517-17.827 6.517-1.716.204-9.17.369-10.93.242zm12.075-22.028c-.025-.066-1.005-.938-2.177-1.94s-2.181-1.866-2.243-1.924c-.061-.057.155-.26.481-.452.327-.191.952-.723 1.39-1.183 1.28-1.342 1.885-3 1.885-5.173 0-2.14-.652-3.865-1.957-5.182-1.315-1.328-2.826-1.899-5.025-1.899-3.39 0-5.994 1.979-6.825 5.186-.286 1.103-.284 3.332.003 4.31.75 2.551 2.79 4.404 5.33 4.84.86.146.977.21 1.563.85.348.381 1.063 1.141 1.588 1.69l.955.996h2.54c1.395 0 2.517-.053 2.492-.119zm-8.706-7.109c-.612-.318-.843-.565-1.191-1.274-.27-.547-.316-.859-.319-2.152-.003-1.314.04-1.598.32-2.169.46-.934 1.094-1.376 2.074-1.447 1.365-.099 2.152.57 2.565 2.18.506 1.973-.05 4.071-1.265 4.767-.637.366-1.587.407-2.185.095zm-11.253 3.663c2.661-.505 4.172-2.053 4.172-4.275 0-1.971-.975-3.12-3.671-4.323-1.544-.69-2.103-1.122-2.103-1.627 0-.419.53-.878 1.148-.993.603-.113 2.203.165 3.147.546l.792.32V30.59l-.86-.19c-.53-.118-1.646-.189-2.92-.185-1.806 0-2.16.044-2.839.314-1.984.787-2.926 2.13-2.911 4.148.014 1.89 1.011 3.069 3.492 4.13 1.464.625 2.051 1.101 2.051 1.664 0 1.197-1.994 1.344-4.104.304l-1.154-.57c-.057-.029-.104.79-.104 1.82 0 1.861.002 1.87.34 1.999 1.27.483 4.076.698 5.523.423zm30.43-1.728v-1.58h-4.811V30.276H35.534v14.022h9.073v-1.58zM29.76 15.013c4.234-.293 7.408-.848 10.202-1.782 2.782-.93 4.426-2.056 4.794-3.283.141-.473.131-.652-.067-1.17-.888-2.325-5.847-4.111-13.425-4.835-3.241-.31-9.137-.21-12.227.208-4.716.637-8.543 1.82-10.245 3.168-3.442 2.726.198 5.724 8.664 7.135 3.67.612 8.427.828 12.304.56z"
      ></path>
</svg>